<svg xmlns:v="http://www.vectomatic.org" space="preserve" version="1.0" viewBox="0 0 377.15 466.51" xmlns="http://www.w3.org/2000/svg" xmlns:svg="http://www.w3.org/2000/svg">
  <path d="M57.962,23.615c1.923-7.828,13.317-14.213,22.274-14.709,1.231-0.3481,5.175-2.4284,8.406-3.3621,19.868-8.5119,36.048-3.6595,38.878-2.403,2.84,1.405,11.61,6.9754,17.32,11.203,9.27,4.822,12.12,12.396,15.57,15.749,6.73,8.406,14.6,13.925,24.89,22.547,11.19,8.473,19.57,24.345,20.72,27.661,2.64,1.235,6.26,4.589,14.64,7.293,31.26,3.893,58.71,54.816,69.11,89.866,7.13,7.49,5.39,29.37,8.77,34.36,4.55,6.93,12.82,58.76,17.47,64.38,1.28,2.32,0.36,10.56,2.99,17.53,1.43,3.76,8.13,28.09,11.64,34.49,5.17,9.5,9.96,33.12,15.48,40.79,16.85,23.6,20.34,41.37,24.77,48.13,0.72,1.56-1.21,4.59-2.87,2.22-1.36-1.73-1.37-2.21-2.21-1.58-1.68,1.57-2.89,2.63-2.15,5.15,2.1,3.36-0.32,5.41,2.26,9.03,2.94,4.84,8.4,18.18,10.61,24.12-0.47,8.19-1.95,11.24-11.61,9.19-4.73-1.1-7.72-5.41-9.83-10.88-1.68-2.41-5.98-1.68-7.98-0.42-10.19,16.34-44.71,10.83-52.38,2.11-7.51-8.99-28.76-45.11-33.01-51.48-8.25-2.71-22.6-19.94-24.72-30.06-0.35-1.8-3.03-1.54-3.78-0.84-3.43,9.92-3.27,13.82-0.42,16.39,2.54,5.39-1.61,9.82-7.15,9.67-21.29-1.49-36.26,0.69-38.18,0.17-1.04-1.26-11.53-0.02-10.03-4.89,1.06-2.05,4.92-5.79,7.86-8.73,1.16-1.31,3.59-1.26,6.31-1.26,4.2,0,4.97,0.15,8.6-0.3,1.55-0.59,2.27-1.59,7.34-2.42,2.1-5.88,11.47-12.11,13.15-14.21,2.43-1.96,1.66-3.27,3.07-5.37,0.66-2.55,0.42-4.25-1.31-5.71-11.83-7.7-28.83-12.43-36.45-17.33-6.58-2.67-11.39-2.44-12.5-0.22-3.79,7.71-8.28,10.81-9.59,12.66-2.21,3.33-4.45,5.01-5.93,5.16-2.52,0-7.54,7.91-12.19,15.55-3.46,5.56-1.26,15.06,1.68,15.55,1.31-0.54,2.02-1.7,7.14,0.84,1.26,1.66,2.03,3.12,3.37,5.47-0.15,2.05-0.99,4.2-5.94,4.59-4.94,0.1-9.64,0.22-11.71-0.39-5.05-2.1-9.25-0.84-11.35,0-16.07-0.2-26.9,0.84-30.262,0-4.105-1.29-2.127-4,3.832-6.13,1.95-0.49,5.86-1.24,11.22-1.68,4.62-0.75,6.92-3.29,7.96-6.73,3.27-9.53,12.66-14.07,15.6-18.22,2.2-2.81,6.21-7.52,7.3-11.54,3.6-3.43,3.11-9.53,0.32-13.7-3.98-5.36-5.94-14.17-10.14-18.61-21.58-23.62-29.64-41.59-36.061-49.95-6.998-4.93-14.987-24.1-19.947-46.35-1.659-7.39-7.679-13.26-14.983-46.54-3.91-16.05-10.202-35.66-0.824-57.09,3.88-5.39,3.307-13.29,6.725-23.116,0-4.623-1.512-10.307,1.26-13.448-0.051-2.102,0.026-3.562-2.619-5.018-3.09-2.051-3.757-4.402-3.855-7.289-4.258-3.927-0.696-5.417-5.293-8.287-5.044-1.681-8.406-2.942-9.667-5.463-2.301-0.739-4.984-0.989-13.067-1.855-11.203-1.609-27.669-4.224-33.163-7.391-2.5217-1.681-4.1518-1.979-0.8406-5.29,9.7012-9.254,25.415-14.433,41.607-17.405,2.522,0,4.326-0.768,5.463-1.681,3.961-2.101,7.986-2.522,8.406-2.522z" fill="#000" fill-rule="evenodd" id="path2889" stroke="#F00" stroke-linecap="butt" stroke-linejoin="miter" stroke-width="1pt" style="stroke:none;fill:#000000"/>
  <path  id="maze" v:start='50x41' v:end='350x416' v:res1='15x20' v:res2='20x30' v:res3='31x43' v:border="#1a1a1a" v:wall="#000" d="M 115.75221,272.88812 C 89.094128,211.85513 78.571199,190.80927 77.168142,170.46495 c -1.403057,-20.34433 -2.806114,-45.59936 2.104586,-60.33146 4.9107,-14.732101 3.507643,-37.882544 -2.806114,-45.599358 -6.313757,-7.716814 -31.568786,-19.6428 -31.568786,-19.6428 0,0 39.987128,-23.150442 54.0177,-26.658085 14.030572,-3.507643 18.941272,-6.313757 31.568782,6.313757 12.62752,12.627514 50.51006,58.928399 59.62993,63.839099 9.11987,4.9107 36.47949,13.329047 39.98713,19.642797 3.50764,6.31376 49.107,63.13757 54.0177,94.70636 4.9107,31.56878 28.76267,149.42558 42.09171,169.76991 13.32905,20.34433 24.5535,40.68866 24.5535,40.68866 l -36.47948,29.4642 c 0,0 -56.12229,-82.78037 -71.55592,-94.00483 -15.43362,-11.22446 -86.28801,-26.65808 -94.00482,-36.47948 -7.71682,-9.8214 -32.27032,-38.58408 -32.97185,-39.2856 z" style="fill:none;stroke:#000000;stroke-width:1px;stroke-linecap:butt;stroke-linejoin:miter;stroke-opacity:1" transform="translate(0,-8.6576384e-6)"/>
</svg>