<svg xmlns:v="http://www.vectomatic.org" enable-background="new 0 0 170 220" overflow="visible" space="preserve" version="1.1" viewBox="0 0 170 220" xmlns="http://www.w3.org/2000/svg" xmlns:svg="http://www.w3.org/2000/svg">
  <rect fill="#FFF" height="220" id="rect3310" width="170"/>
  <path clip-rule="evenodd" d="M117.32,23.68c17.574,17.574,17.574,46.066,0,63.64-17.573,17.574-46.065,17.574-63.639,0s-17.574-46.066,0-63.64,46.065-17.574,63.639,0z" fill-rule="evenodd" id="path3312" style="fill:#23acd3;fill-opacity:1;stroke:none"/>
  <path d="M117.32,23.68c17.574,17.574,17.574,46.066,0,63.64-17.573,17.574-46.065,17.574-63.639,0s-17.574-46.066,0-63.64,46.065-17.574,63.639,0z" fill="none" id="path3314" stroke="#000" stroke-linecap="round" stroke-linejoin="round" stroke-miterlimit="1" style="fill:#23acd3;fill-opacity:1;stroke:none"/>
  <path clip-rule="evenodd" d="M155.5,210.5h-140c-2.761,0-5-2.238-5-5v-10c0-2.762,2.239-5,5-5h140c2.762,0,5,2.238,5,5v10c0,2.76-2.24,5-5,5z" fill-rule="evenodd" id="path3316" style="fill:#23acd3;fill-opacity:1;stroke:none"/>
  <path d="M155.5,210.5h-140c-2.761,0-5-2.238-5-5v-10c0-2.762,2.239-5,5-5h140c2.762,0,5,2.238,5,5v10c0,2.76-2.24,5-5,5z" fill="none" id="path3318" stroke="#000" stroke-linecap="round" stroke-linejoin="round" stroke-miterlimit="1" style="fill:#23acd3;fill-opacity:1;stroke:none"/>
  <path clip-rule="evenodd" d="M145.5,190.5h-120c-2.761,0-5-2.238-5-5v-20c0-2.762,2.239-5,5-5h120c2.762,0,5,2.238,5,5v20c0,2.76-2.24,5-5,5z" fill-rule="evenodd" id="path3320" style="fill:#23acd3;fill-opacity:1;stroke:none"/>
  <path d="M145.5,190.5h-120c-2.761,0-5-2.238-5-5v-20c0-2.762,2.239-5,5-5h120c2.762,0,5,2.238,5,5v20c0,2.76-2.24,5-5,5z" fill="none" id="path3322" stroke="#000" stroke-linecap="round" stroke-linejoin="round" stroke-miterlimit="1" style="fill:#23acd3;fill-opacity:1;stroke:none"/>
  <path clip-rule="evenodd" d="M135.5,160.5h-100c-2.761,0-5-2.238-5-5s2.239-5,5-5h100c2.762,0,5,2.238,5,5,0,2.76-2.24,5-5,5z" fill-rule="evenodd" id="path3324" style="fill:#23acd3;fill-opacity:1;stroke:none"/>
  <path d="M135.5,160.5h-100c-2.761,0-5-2.238-5-5s2.239-5,5-5h100c2.762,0,5,2.238,5,5,0,2.76-2.24,5-5,5z" fill="none" id="path3326" stroke="#000" stroke-linecap="round" stroke-linejoin="round" stroke-miterlimit="1" style="fill:#23acd3;fill-opacity:1;stroke:none"/>
  <path clip-rule="evenodd" d="M135.5,100.5h-100c-2.761,0-5-2.239-5-5s2.239-5,5-5h100c2.762,0,5,2.239,5,5s-2.24,5-5,5z" fill-rule="evenodd" id="path3328" style="fill:#23acd3;fill-opacity:1;stroke:none"/>
  <path d="M135.5,100.5h-100c-2.761,0-5-2.239-5-5s2.239-5,5-5h100c2.762,0,5,2.239,5,5s-2.24,5-5,5z" fill="none" id="path3330" stroke="#000" stroke-linecap="round" stroke-linejoin="round" stroke-miterlimit="1" style="fill:#23acd3;fill-opacity:1;stroke:none"/>
  <path clip-rule="evenodd" d="M124.43,160.5h-80c-2.762,0-4.521-2.238-3.929-5l12.857-60c0.592-2.761,3.31-5,6.072-5h50c2.761,0,5.479,2.239,6.071,5l12.857,60c0.59,2.76-1.17,5-3.93,5z" fill-rule="evenodd" id="path3332" style="fill:#23acd3;fill-opacity:1;stroke:none"/>
  <path d="M124.43,160.5h-80c-2.762,0-4.521-2.238-3.929-5l12.857-60c0.592-2.761,3.31-5,6.072-5h50c2.761,0,5.479,2.239,6.071,5l12.857,60c0.59,2.76-1.17,5-3.93,5z" fill="none" id="path3334" stroke="#000" stroke-linecap="round" stroke-linejoin="round" stroke-miterlimit="1" style="fill:#23acd3;fill-opacity:1;stroke:none"/>
  <path id="maze" v:start='87x203' v:end='87x15' v:res1='15x20' v:res2='20x30' v:res3='29x49' v:border="#2493b2" v:wall="#23acd3" d="M 67.118644,89.957627 C 53.601695,70.381356 50.338982,67.584745 49.406779,52.669491 48.73554,41.929654 55.932203,25.635594 68.050847,20.974577 c 12.118645,-4.661017 20.042374,-3.262713 32.627113,-1e-6 10.01794,2.597242 19.57627,21.440678 20.04237,29.830508 -0.62588,17.687059 -4.64399,23.912003 -18.17796,39.618645 l 15.84746,75.508471 18.64407,0.93221 0,36.82203 -101.610171,0 -0.932204,-35.88983 18.177967,-0.4661 14.449152,-77.372883 z" style="fill:none;stroke:none;stroke-width:1px;stroke-linecap:butt;stroke-linejoin:miter;stroke-opacity:1;fill-opacity:1"/>
</svg>