<svg xmlns:v="http://www.vectomatic.org" version="1.0" viewBox="0 0 711.17 390.02" xmlns="http://www.w3.org/2000/svg" xmlns:svg="http://www.w3.org/2000/svg">
  <g id="g3729" transform="translate(-11.72033,-320.54922)">
    <path d="M352.62,707.9c2.69-1.37,6.68-4,8.87-5.84,2.2-1.84,4.95-3.35,6.11-3.35,1.17,0,5.25-2.99,9.07-6.64,9.08-8.67,11.11-14.27,2.79-29.04-1.6-2.85-7.07-8.64-7.92-10.97-1.97-5.42,0.41-13.04,0.39-27.86-0.02-25.64,2.13-41.13,6.6-47.5,1.76-2.5,2.43-6.61,1.66-10.18-2.3-10.65-0.13-11.07,62.59-11.88,31.44-0.41,62.99-1.57,70.1-2.57l12.94-1.81,10.98,11.06c6.04,6.09,12.02,13.83,13.3,17.21,2.34,6.21,3.62,7.18,14.74,11.27,4.7,1.73,5.8,3.12,4.58,5.75-0.88,1.92-2.55,9.1-3.7,15.97-1.86,11.13-3.35,13.75-13.74,24.16-6.4,6.43-12.84,13.95-14.29,16.72-1.46,2.76-6.5,8.26-11.22,12.2-7.58,6.33-8.4,7.89-7.08,13.44,2.27,9.6,10.51,13.61,27.44,13.37,7.85-0.11,17.63-1.62,21.74-3.34s9.74-3.74,12.51-4.48,8.43-4.11,12.59-7.49c6.71-5.45,7.52-7.19,7.26-15.43-0.18-5.32-4.67-7.25,0.79-17.34,4.79-8.83,3.23-20.14,6.13-29.2,4.84-15.14,15.01-34.59,18.67-35.72,4.36-1.34,9.67,8.96,10.85,21.06,1.41,14.37-4.53,43.73-10.38,51.33-2.31,3-4.2,6.35-4.2,7.43,0,1.09-3.92,6.16-8.7,11.28s-8.7,11.11-8.7,13.31c0,5.36,9.51,13.88,15.49,13.88,10.42,0,32.29-4.56,34.69-7.24,1.4-1.56,3.77-2.83,5.27-2.83,7.47,0,22.38-27.13,18.74-34.07-0.76-1.46-4.09-4.24-1.41-9.7,5.19-10.6,0.71-29.13,2.85-31.11,1.19-1.1-21.87-57.15-17.67-95.79,1.32-12.21,9.37-29.15,12.24-48.43,4.72-31.79,4.52-65.7,4.52-63.96,0,6.1,6.2-0.7,10.37,20.93,3.3,17.12,4.67,57.28,5.34,99.1,0.04,2.13-11.51,87.12-11.45,85.34,0.69-19.74,3.1,19.48,5.37,19.48,2.26,0,10.34,14.53,10.34,16.19,0,7.08,11.6-4.18,19.13-15.45,4.74-7.12,4.83-11.86,0.65-37.18-0.46-2.77-1.16-12.28-1.56-21.14-0.47-10.47-2.53-20.7-5.88-29.2-4.65-11.84,2.87-16.19,3.04-45.31,0.11-17.73,0.95-46.14,1.87-63.16,1.76-32.41-0.8-60.87-6.63-73.79-3.95-8.76-23.06-24.37-31.88-26.04-8.52-1.62-32.15-4.37-60.38-7.05-11.36-1.08-27.74-3.04-36.39-4.35-14.25-2.16-17.03-1.99-29.35,1.79-35.04,10.73-40.22,11.27-107.11,11.15-38.15-0.06-66.49-0.97-71.75-2.29-18.73-4.71-70.8-1.9-86.97,4.69-15.11,6.16-45.21,13.02-69.43,15.83-28.13,3.26-43.64,4.54-33.85-5.47,4.95-5.07-4.13-9.4-15.15-9.4-7.01,0-12.28,1.48-17.93,5.04-9.92,6.24-10.67,6.24-22.61-0.25-9.65-5.23-9.91-5.26-34.89-3.33-19.34,1.49-29.509,1.29-43.932-0.85-10.323-1.54-20.963-0.83-23.42-1.72-17.287-6.23-20.459-0.5,1.774,13.22,5.067,3.13,27.473,8.01,28.489,8.01,1.017,0,7.086,2.46,7.82,3.34,1.672,1.99-0.414,0.59-3.296,0.91-7.577,0.82-28.462-0.7-32.399-3.17-16.231-10.16-21.639-7.99-9.73,7.87,11.031,6.29,23.256,11.92,40.259,14.23l-0.78,14.87c-0.743,14.18-7.138,35.49-14.739,49.1-4.777,8.56-11.245,33.7-9.918,38.56,3.819,13.95,21.683,23.74,44.03,24.13,13.946,0.23,18.358-2.25,27.422-15.47,6.54-9.52,16.9-15.52,26.85-15.53,4.21,0,11.25-1.8,15.66-3.99l8.02-3.98,11.52,5.22c6.33,2.87,14.58,6.7,18.32,8.51s12.73,10.09,19.97,18.4,17.74,20.09,23.33,26.18c12.67,13.8,29.22,38.07,29.24,42.87,0.01,1.99,2.12,6.25,4.7,9.47,4.55,5.7,4.58,6.16,1.14,16.54-1.94,5.86-4.16,15.65-4.92,21.74-1.58,12.47-3.89,16.59-15.57,27.79-14.85,14.25-28.82,30.28-28.82,33.09,0,1.53,1.71,6.47,5.84,10.18l9.18,6.08,17.41-1.25c9.57-0.68,19.15-2.03,21.29-2.99,2.15-0.97,7.79-3.49,12.54-5.61,10.41-4.64,15.85-12.72,10.89-16.16-4.28-2.97-4.07-4.72,1.16-9.88,3.8-3.74,4.48-7.57,5.1-28.33,0.75-25.68,2.78-31.99,13.13-40.95,3.1-2.68,5.93-4.5,6.3-4.03,10.88,13.83,17.41,35.04,16.33,53.09-1.07,17.82-5.85,27.29-20.67,40.94-10.09,9.29-11.53,11.62-11.53,18.68,0,6.8,0.87,8.37,5.58,10.02,7.79,2.75,40.15,2.09,46.04-0.93z" fill="#040404" id="path3731" style="fill:#a6f667;fill-opacity:1"/>
    <path  id="maze" v:start='40x155' v:end='640x85' v:res1='30x10' v:res2='40x14' v:res3='50x17' v:border="#17d017" v:wall="#040404" d="m 433.53048,41.3107 c -52.3064,3.298601 -85.76364,-12.251948 -111.20999,-12.251948 -25.44636,0 -88.59101,24.503896 -113.09491,27.331269 C 184.81127,59.207056 87.050591,42.196259 81.993805,51.677734 74.454147,65.814597 44.295506,131.78662 42.410591,144.98103 c -1.922244,13.45571 28.273727,26.38881 41.468132,16.02178 13.194406,-10.36703 49.007797,-32.04356 61.259737,-30.15864 14.55047,2.23854 59.37483,30.15864 72.56923,46.18042 13.93534,16.92149 41.46814,56.54746 46.18042,62.2022 4.71229,5.65475 80.1089,-1.88492 81.05136,-10.36703 0.94246,-8.48212 26.38957,-22.59208 60.31728,-23.56144 32.98601,-0.94246 78.22398,-6.59721 102.72788,-1e-5 27.73793,7.46791 36.75584,39.58322 54.66254,37.69831 17.90669,-1.88492 65.97203,7.53966 65.97203,-14.13686 0,-21.67653 5.65474,-59.37483 12.25194,-89.53347 5.92336,-27.07821 9.42458,-68.799405 -3.76982,-82.936269 C 623.90691,42.253158 582.43878,21.519091 567.35946,26.231379 552.28013,30.943667 485.83688,38.012099 433.53048,41.3107 z" style="fill:none;stroke:none;stroke-width:1px;stroke-linecap:butt;stroke-linejoin:miter;stroke-opacity:1;fill-opacity:1" transform="translate(11.720329,320.54922)"/>
  </g>
</svg>