<svg xmlns:v="http://www.vectomatic.org" version="1.0" viewBox="0 0 223.24 294.42" xmlns="http://www.w3.org/2000/svg" xmlns:svg="http://www.w3.org/2000/svg">
  <g id="g4311" transform="translate(-260.22087,-345.12577)">
    <path d="M434.08,345.13c-0.97,0-6.14,7.04-11.47,15.62-14.36,23.1-38.51,54.1-43.69,56.09-2.49,0.96-7.43,2.01-10.97,2.32-6.51,0.57-14.52,7.47-32.31,27.81-7.69,8.79-12.88,12.1-26.1,16.66-10.16,3.49-19.04,8.38-23.09,12.71-6.03,6.45-6.31,7.48-3.37,12.41,1.76,2.96,8.93,8.5,15.93,12.28l12.72,6.88-3.19,11.28c-1.76,6.21-3.23,14.68-3.25,18.81-0.01,4.13-2.4,12.33-5.31,18.19-5.61,11.3-13.59,41.66-14.75,56.12-0.41,5.07-20.6,27.24-25.01,27.24h195.33c-0.03-7.72-1.92-18.71-2.94-19.39-2.81-1.86,0.03-30.73,3.62-36.88,4.77-8.14,3.78-22.99-2.5-37.4-4.66-10.7-5.67-16.68-5.69-34.29-0.01-13.62,1.15-23.69,3.19-27.9,1.76-3.63,4.3-13.01,5.66-20.85,2.6-15.02,11.05-32.97,18.03-38.25,7-5.28,10.65-19.47,7.25-28.25-4.01-10.34-8.31-13.84-12.47-10.15-2.41,2.14-4.45,2.19-7.91,0.22-4.08-2.34-4.6-2.02-4.12,2.59,0.3,2.89-0.81,5.8-2.5,6.44-2.39,0.9-2.78-1.05-1.78-8.72,0.71-5.43,0.15-13.45-1.22-17.84-2.42-7.78-14.58-23.75-18.09-23.75z" id="path4313" style="fill:#0a3c3c;fill-opacity:1"/>
    <path  id="maze" v:start='25x249' v:end='170x34' v:res1='15x20' v:res2='20x27' v:res3='25x35' v:border="#275959" v:wall="#0a3c3c" d="m 43.446574,269.49164 c 25.640602,-111.82151 27.777319,-99.71345 21.367169,-108.97256 -6.410151,-9.2591 -24.853052,-12.4093 -23.503885,-17.80597 2.136716,-8.54687 52.705681,-29.20179 56.979114,-35.61195 2.370468,-3.55571 59.115828,-54.842394 64.101508,-61.964784 2.45065,-3.500933 6.19247,-9.651505 12.8203,-8.546866 8.54687,1.424477 8.54686,17.805973 13.53254,25.6406 2.05919,3.23588 10.68358,4.273435 7.83462,17.093735 -1.80845,8.138023 -25.6406,56.266875 -24.92836,71.223895 0.71224,14.95701 4.98567,57.69135 7.83463,68.37493 2.84895,10.68358 -4.27343,50.56897 -4.27343,50.56897 l -131.764206,0 z" style="fill:none;stroke:none;stroke-width:1px;stroke-linecap:butt;stroke-linejoin:miter;stroke-opacity:1;fill-opacity:1" transform="translate(260.22087,345.12577)"/>
  </g>
</svg>