<svg xmlns:v="http://www.vectomatic.org" version="1.0" viewBox="0 0 196.169 270" xmlns="http://www.w3.org/2000/svg" xmlns:svg="http://www.w3.org/2000/svg">
  <path d="M182.97,128.88c-5.69,10.06-20.12,31.13-30.75,44.98-10.63,13.86-24.1,28.28-27.52,32.65-3.41,4.37-4.55,5.51-5.31,6.83-0.06,0.11-0.13,0.24-0.2,0.38-0.3,4.03-1.05,14.21-1.53,19.55-0.13,1.42-0.33,3.05-0.59,4.75,0.19,0.24,0.35,0.36,0.42,0.76,0.1,0.57,0.29,1.23,0.29,1.23s-0.1,1.14-0.1,1.71,0.19,1.04,0.38,1.71c0.19,0.66,0.38,1.14,0.66,1.61,0.29,0.47-0.18,1.23-0.18,2.18s-0.1,0.48-0.1,0.86,0,0.94,0.1,1.42c0.09,0.48-0.2,0.57-0.1,1.23,0.1,0.67-0.1,0.67,0,1.43s-1.18,1.72-1.18,1.72,0.04-0.68-0.81-1.25c-0.86-0.57-0.38-0.66-0.76-1.61s-0.1-1.52-0.1-2.47c0-0.86,0-1.48-0.21-2.15-0.72,2.75-1.57,5.16-2.5,6.61-2.38,3.7-3.96,5.09-6.17,3.15-0.26-0.23-0.51-0.5-0.74-0.81,0.22,1.25,0.51,6.62,0.59,8.1,0.07,1.52,0.68,3.11,0.53,4.02s0.07,1.52-1.06,1.9c-1.14,0.38-5.55,0.38-8.128,0.46-2.581,0.07-6.747,0.07-7.364,0.12s-0.949-0.09-1.186-0.24c-0.237-0.14-0.475-0.47-0.475-0.47s-0.19,0.14-0.237,0.33-0.285,0.43-0.285,0.43-0.237-0.48-0.189-0.86c0.047-0.38-0.143-1.23-0.237-1.75-0.095-0.52,0.142-0.62,0.427-0.95s0.185-1.76,0.143-3.27c-0.048-1.71,0.047-4.13,0-6.17-0.048-2.04,0.711-2.14,1.139-2.85s1.368-0.99,1.368-0.99-0.009-0.2,0.039-0.48c0.047-0.29,0.03-0.89-0.018-1.69-0.048-0.81-0.006-2.02-0.006-2.02s-1.265-0.39-1.771-0.78c-0.308-0.23-0.181-0.49,0.056-0.83,0.237-0.33,1.186-1.11,1.851-1.49,0.664-0.38,1.091-0.31,1.091-0.31s0.078-0.74,0.12-1.41c-0.421,0.09-0.801,0.2-1.308,0.17-1.028-0.08-0.685-0.81-0.014-1.34,0.497-0.39,0.848-0.6,1.282-0.79-0.037-0.34-0.091-0.75-0.175-1.37-0.054-0.41-0.087-0.69-0.109-0.9-0.005-0.06-0.01-0.1-0.014-0.15-0.003-0.04-0.007-0.07-0.009-0.1s-0.004-0.06-0.006-0.08c-0.001-0.02-0.003-0.05-0.004-0.06-0.002-0.03-0.003-0.06-0.003-0.08-1.033-0.81-2.166-2.59-3.08-4.09-1.044-1.71-12.242-21.07-13.286-22.3-1.044-1.24-23.63-29.52-30.842-39.2s-27.901-35.68-37.581-61.11c-9.68-25.433-7.972-38.909-4.365-50.866,3.603-11.957,11.195-24.104,22.962-30.178,2.278-3.986,4.325-12.015,20.688-20.688,18.98-10.06,33.974-1.139,33.974-1.139s6.833-9.49,20.692-9.87c13.85-0.38,22.01,10.249,22.01,10.249s17.7-6.153,34.17,4.555c19.55,12.717,22.39,27.711,22.39,27.711s15.19,12.716,16.32,34.733c1.14,22.017-7.4,41.563-13.09,51.623zm-94.037,139.38s-0.072,0.2-0.029,0.33,0.043,0.46,0.043,0.46,0.101-0.13,0.115-0.33c0.015-0.2-0.129-0.46-0.129-0.46zm3.234-21.82c-0.253,0.06-0.846,0.43-1.036,0.59-0.166,0.14-0.183,0.17-0.272,0.28-0.013,0.01-0.024,0.03-0.024,0.03s0.042,0.01,0.062,0.06c0.014,0.03,0.005,0.05,0.005,0.05s0.056,0.03,0.127,0.05c0.408,0.1,1.21,0.25,1.21,0.25s0.181-1.37-0.072-1.31zm-9.318-31.41c-1.8-0.68-4.034-0.87-4.034-0.87s1.427,1.18,3.6,1.86,4.593,0.81,4.593,0.81-2.36-1.12-4.159-1.8zm20.371,38.17s0.81-0.21,1.42-0.14c-0.61-1.35-1.08-2.8-1.48-3.94-0.09-0.25-0.16-0.49-0.23-0.72,0.06,1.95,0.29,4.8,0.29,4.8zm-0.31-5.62v0.01c0.46,1.59,1.15,3.73,2.04,5.53h0.01c0.49,0.19,0.69,0.77,0.86,1.54,0.8,1.21,1.7,2.03,2.69,2.03,2.72,0,5.22-5.48,6.73-10.83-0.03-0.36,0.12-0.66,0.29-1.08,0.11-0.45,0.22-0.89,0.32-1.33,0.14-0.92,0.18-1.65-0.07-2.3-0.21-0.57-0.92-1.58-1.25-2.04-0.14,0.25-0.3,0.49-0.46,0.71-3.41,4.65-5.88,5.56-8.35,5.18-1.29-0.2-2.22-0.67-2.81-1.08v3.66zm-0.12-5.07c0.37-0.07,0.89-0.19,1.34-0.41,0.82-0.38,0.43-0.94-0.46-1.14-0.25-0.06-0.58-0.08-0.87-0.12-0.01,0.05-0.02,0.09-0.04,0.14-0.18,0.66-0.07,1.15,0.03,1.53zm-0.94-0.85c0.15-0.53-0.15-0.45-0.15-1.29,0-0.27-0.02-0.5-0.04-0.69l-1.19,0.03v1.98s0.01,0.68,0,1.01c0,0.06,0.14,0.07,0.31,0.06,0.25-0.01,0.47,0.02,0.76-0.02,0.1-0.29,0.22-0.76,0.31-1.08zm-2.921,3.49c0.333,0.1,0.583,0.42,0.601,0.95,0.012,0.37-0.117,0.92-0.301,1.21-0.111,0.19-0.11,0.3-0.089,0.42,0.021,0.11,0.087,0.24,0.14,0.28,0.055,0.05,0.157,0.11,0.157,0.11l0.044-0.04s0.162,0.06,0.351,0.24c0.188,0.18,0.708,0.88,0.768,1.34,0.33,2.45,0.81,3.47,0.92,3.88,0-2.33-0.16-7.73-0.16-7.93,0-0.03-0.02-0.05-0.05-0.08,0.01-0.05,0.01-0.1,0.01-0.15,0.08-1.74-0.08-1.9,0.08-2.28,0.03-0.08,0.06-0.17,0.1-0.27-0.78,0.06-1.688,0-2.293,0-0.084,0-0.158,0-0.23-0.01-0.012,0.16-0.025,0.32-0.039,0.46-0.04,0.43-0.002,1.47-0.009,1.87zm-2.956,8.93c0.012,0.11,0.037,0.19,0.037,0.19l0.024,0.08,1.491-0.03v-2.52c-0.137,0.18-0.264,0.34-0.342,0.44-0.198,0.25-0.408,0.64-0.593,0.78s-0.469,0.47-0.469,0.47l-0.247,0.21s0.086,0.27,0.099,0.38zm-2.373-8.96c0.219-0.01,0.434-0.01,0.598,0.04,0.54,0.15,0.756,0.35,0.886,0.82,0.13,0.48,0.194,0.8,0.043,1.08s-0.389,0.41-0.454,0.63c-0.065,0.21-0.022,0.43-0.022,0.43l0.259,0.02,0.194,0.35-0.086,0.08s0.151,0.09,0.302,0.48,0.302,0.73,0.346,1.15c0.043,0.41,0.151,0.8,0.173,1.12s0.086,0.76,0.086,0.76,0.367-0.42,0.562-0.74,0.303-0.65,0.454-0.86c0.138-0.2,0.42-0.56,0.583-0.85v-1.66c-0.143,0.02-0.365,0.03-0.443-0.01-0.092-0.04-0.129-0.11-0.124-0.19s0.038-0.08,0.032-0.15c-0.005-0.06-0.065-0.08-0.076-0.11-0.011-0.04,0.043-0.05,0.043-0.05l-0.06-0.06c0-0.04,0.038-0.04,0.038-0.09s-0.054-0.13-0.108-0.13-0.198-0.06-0.16-0.12,0.125-0.22,0.182-0.31c0.064-0.11,0.168-0.19,0.109-0.27-0.083-0.1-0.09-0.31-0.098-0.39-0.008-0.09-0.008-0.12-0.013-0.18h-0.059c0.002,0.05,0.009,0.09,0.017,0.11-0.011-0.02-0.024-0.05-0.029-0.08-0.021,0.05-0.033,0.1-0.018,0.16,0.015,0.05,0.03,0.08,0.042,0.1-0.04-0.04-0.099-0.14-0.027-0.28v-0.01c-0.03,0.01-0.06,0.01-0.086,0.01-0.002,0.01-0.004,0.02-0.004,0.04,0,0.1,0.013,0.15,0.022,0.17-0.018-0.03-0.05-0.12-0.029-0.21h-0.059,0.06c0.008-0.04,0.021-0.07,0.044-0.1,0-0.08,0.032-0.18,0.195-0.25,0.012,0,0.022-0.01,0.033-0.01,0.013-0.03,0.035-0.06,0.074-0.09h-0.042c0.023-0.01,0.039-0.02,0.047-0.02h0.003-0.003-0.005c0.057-0.02,0.093-0.03,0.095-0.04-0.003,0,0.009,0.01,0.028,0.01h0.025,0.003c-0.004,0-0.009,0-0.015,0.01h0.008c0.03-0.01,0.022-0.02,0.021-0.03v0.01h-0.005c0.004-0.01-0.002-0.02,0.012-0.02,0-0.02,0.048-0.03,0.046-0.05-0.071,0-0.171,0.06-0.256,0.03-0.072-0.02-0.139-0.04-0.159-0.11,0.046,0.08,0.225,0.15,0.474,0.04h0.013c-0.003-0.04,0.211-0.06,0.212-0.1,0.005-0.38,0.071-1.16,0.036-1.63-0.021-0.26-0.023-0.44-0.021-0.57-0.403,0.13-0.622,0.08-1.246,0.08-0.696,0-0.558-0.19-1.19-0.25-0.633-0.06-0.455-0.57-0.455-0.57s0.055-0.4,0.099-0.61c0.007-0.04-0.33,0-0.699,0.04-0.088,0.01-0.178,0.03-0.267,0.05l-0.16,0.93,0.037,1.86-0.073-0.01,0.015,0.6zm3.551,0.36c-0.031,0-0.066-0.01-0.106-0.01-0.032,0.02-0.061,0.05-0.077,0.08h0.01c0.003-0.01,0.005-0.02,0.01-0.02,0.003,0,0.031,0,0.066,0.01,0.012,0,0.021-0.02,0.031-0.03,0-0.01,0-0.01,0.018-0.02,0.01-0.01,0.039,0,0.048-0.01zm-0.184,0.12h-0.015c-0.001,0-0.002,0.01-0.004,0.01,0.007,0,0.012-0.01,0.019-0.01zm-0.246,0.24c-0.016,0.02-0.027,0.04-0.034,0.07h0.086c0-0.05,0.014-0.1,0.059-0.15-0.03,0.01-0.073,0.03-0.105,0.07-0.002,0.04,0.002,0.06,0.005,0.07-0.004-0.01-0.009-0.03-0.011-0.06zm0.133-0.02c-0.003,0-0.035,0.04-0.063,0.09,0.017-0.01,0.046-0.01,0.06-0.01,0.007-0.04,0.002-0.07,0.003-0.08zm-0.042,0.03c0.015-0.02,0.027-0.04,0.038-0.05-0.003-0.02-0.005-0.03-0.007-0.04-0.029,0.04-0.052,0.08-0.054,0.13,0.006-0.01,0.014-0.03,0.023-0.04zm-0.021-0.11c0.019-0.01,0.035-0.02,0.05-0.03,0-0.01,0.016-0.01,0.036-0.01,0.012-0.03,0.03-0.05,0.058-0.08,0,0,0.001-0.01,0.002-0.02-0.066,0.01-0.166,0.04-0.194,0.15-0.006,0.02-0.01,0.04-0.012,0.05,0.016-0.02,0.035-0.04,0.06-0.06zm-2.015-4.81v-0.7l-0.054-0.38-0.61,0.02-0.015,0.05-0.297,1.74,0.942-0.14,0.034-0.59zm-3.654,2.07c-0.633,0.5-0.958,1.12-0.173,1.25,0.369,0.06,1.001-0.06,1.413-0.17,0.016-0.27,0.027-0.54,0.027-0.75,0-0.38-0.012-0.71-0.048-1.07-0.58,0.29-0.918,0.5-1.219,0.74zm6.008-26.5c-3.079-0.08-7.347,0.51-7.347,0.51s4.88,0.65,7.195,0.59c2.316-0.07,7.152-0.65,7.152-0.65s-4.297-0.39-7-0.45zm14.85-0.84c-1.99,0.38-4.89,1.1-4.89,1.1s3.08,0.07,5.07-0.38c2-0.45,4.32-1.36,4.32-1.36s-2.5,0.25-4.5,0.64zm0.19,10.59c-4.59,6.9-8.36,12.63-8.86,13.39h-0.06c-0.14,0.31-0.32,0.72-0.44,1.12,0.22,0.04,0.64,0.09,0.99,0.19,0.71,0.2,0.92,0.53,0.82,0.8-0.15,0.37-0.86,0.63-1.81,0.85,0.06,0.21,0.1,0.44,0.1,0.73v0.39c1.21,0.64,3.57,1.62,5.66,0.68,2.69-1.22,4.97-3.97,6.21-6.76l1.12-3.25c0.76-2.79,1.4-6.79,2.01-14.59,0.1-1.28,0.2-2.71,0.28-3.99-1.05,2.19-2.81,5.63-6.02,10.44zm6.31-11.05c-0.02,1.35-0.07,2.94-0.23,4.41-0.26,2.41-0.52,8.84-1.77,14.15,0.08,0.28-0.2,0.35-0.03,1.03,0.19,0.76-0.1,0.57,0.19,1.8,0.27,1.21-0.08,0.51,0.17,1.02,0.76-6.55,1.75-18.61,2.13-23.38-0.13,0.28-0.28,0.6-0.46,0.97zm-21.68,31c0.016,0.02,0.028,0.02,0.028,0.02s-0.011,0.01-0.028-0.02zm-0.096-0.07c0.006,0.01,0.011,0.02,0.011,0.02s-0.005-0.01-0.011-0.02zm0.272-0.66h0.004c-0.053,0.03-0.149,0.1-0.301,0.24,0.107-0.12,0.215-0.19,0.297-0.24zm-0.093,0.03c-0.074,0.03-0.095,0.02-0.153,0.11,0.025-0.06,0.024-0.1,0.292-0.16-0.014,0.01-0.029,0.01-0.046,0.02-0.03,0.01-0.061,0.01-0.093,0.03zm0.291-0.09h0.01-0.01z" id="path4941" style="fill:#ee8b15;fill-opacity:1"/>
  <path  id="maze" v:start='95x203' v:end='100x8' v:res1='18x20' v:res2='22x23' v:res3='33x36' v:border="#b96f18" v:wall="#ee8b15" d="M 78.414475,198.03735 C 60.594044,180.53092 11.960992,106.32583 10.422177,87.860049 7.9407066,58.082401 22.829531,48.652812 32.259119,38.726929 41.688708,28.801046 49.162312,16.371085 61.04418,15.401104 c 12.075075,-0.985755 20.34806,3.970353 20.34806,3.970353 0,0 3.912166,-10.422177 19.35547,-11.4147653 11.88653,-0.7639837 20.84436,13.8962363 20.84436,13.8962363 0,0 12.40735,-7.940707 20.84435,-4.962942 8.437,2.977765 26.79988,15.385119 27.79247,28.78506 8.9333,-2.48147 15.38512,18.859178 16.37771,29.281355 1.1224,11.785133 3.47406,22.333237 -9.42959,43.673889 -12.90365,21.34064 -43.67388,68.48858 -54.59236,76.92558 -10.91847,8.437 -34.383234,12.09597 -44.170175,2.48148 z" style="fill:none;stroke:none;stroke-width:1px;stroke-linecap:butt;stroke-linejoin:miter;stroke-opacity:1;fill-opacity:1" transform="translate(-4.9908447e-4,0)"/>
</svg>