<svg width="100%" height="100%" xmlns:v="http://www.vectomatic.org" viewBox="0 0 463.89285 438.87704" version="1.0" xmlns="http://www.w3.org/2000/svg" xmlns:svg="http://www.w3.org/2000/svg">
  <g transform="translate(-42.3393,-276.342)">
    <path d="m 437.14509,499.4375 0,0 z m 0,0 L 274.33259,355.25 111.42634,499.5 l 0,206.125 c 0,5.32338 4.30162,9.59375 9.625,9.59375 l 101.8125,0 0,-90.375 c 0,-5.3234 4.27037,-9.625 9.59375,-9.625 l 83.65625,0 c 5.32335,0 9.59375,4.30162 9.59375,9.625 l 0,90.375 101.84375,0 c 5.32337,0 9.59377,-4.27035 9.59375,-9.59375 l 0,-206.1875 z m -325.71875,0.0625 0,0 z" style="fill:#008080;fill-opacity:1;stroke:none"/>
    <path d="M 273.3878,276.34171 42.339286,480.92527 66.677596,508.38266 274.33298,324.49848 481.9411,508.38266 506.23215,480.92527 275.2309,276.34171 l -0.89792,1.03969 -0.94518,-1.03969 z" style="fill:#008080;fill-opacity:1;stroke:none"/>
    <path d="m 111.42634,305.79074 58.57143,0 -0.51038,34.69109 -58.06105,52.45177 0,-87.14286 z" style="fill:#008080;fill-opacity:1;stroke:none"/>
    <path id="maze" v:res3="40x40" v:res2="30x30" v:res1="20x20" v:start="85x59" v:end="333x423" v:border="#008080" v:wall="#009394" d="m 85.543831,421.21038 80.894709,-0.92982 -0.92982,-92.98243 129.24557,0 1.85965,92.98243 83.68418,0.92982 0.92983,-188.75432 -149.70172,-127.38592 -145.982399,127.38592 0,188.75432 z" style="fill:#009394;fill-opacity:1;stroke:none;visibility:hidden;" transform="translate(42.3393,276.342)"/>
  </g>
</svg>