<svg xmlns:v="http://www.vectomatic.org" version="1.0" viewBox="0 0 703.33 436.67" xmlns="http://www.w3.org/2000/svg" xmlns:svg="http://www.w3.org/2000/svg">
  <g id="g5526" transform="translate(-46.666668,-81.666664)">
    <path d="M118.91,396.75s-2.06,20.81,7.97,37.77c10.03,16.95,21.09,23.89,28.8,28.77,7.71,4.89,20.57,8.23,32.14,9s25.45-0.26,37.8-5.91c12.34-5.66,20.31-13.88,24.94-19.02s7.97-10.02,11.83-16.18l6.81-5.27s5.66,0.26,9.13-2.19c0,0,2.83,2.32,14.78,0.26,11.96-2.05,27.64-7.06,27.64-7.06s28.93,1.28,70.07,2.18l12.85,48.8s-4.27-0.82-4.09,2.73c0.18,3.54,0.36,5.99,0.36,5.99s0.28,1.73,3.55,1.46h1.27l3.46,11.44,0.9,14.45s1.19,5.9,8.28,4.9,6.36-5.99,6.45-7.26c0.09-1.28-0.09-2.09-2.27-7.36s-3.91-8.18-3.91-8.18l-5-19.53-1.09-0.82-11.91-46.24h5.64l2,5.91,0.81,11.63s0.73,4.08,6.91,3.72c6.19-0.36,6.19-4.91,5.91-6.45-0.27-1.54-5.54-12.35-5.54-12.35l-0.37-1.73,82.62,1.97s21.84,0.66,36.38-13.14c14.55-13.81,17.82-18.54,17.82-18.54s6.18,4.91,19.27,4.36c0,0,0.18,26.17,12,42.88,11.82,16.72,19.27,21.26,35.45,29.25,16.19,8,37.82,6,43.28,5.45,5.45-0.54,25.09-6.54,39.27-19.62s18.91-29.43,21.27-39.06,2.36-32.16-7.09-48.87c-9.45-16.72-14.55-19.45-14.55-19.45s33.7,2.42,39.09-4.36c3.55-4.45,2.55-7.44,1.46-9.44s-8.73-21.44-36.91-39.07c0,0,1.64-2.54-2.73-5.63-4.36-3.09-24.9-11.26-50-8.54,0,0-12.36,0.73-12.9,2.36,0,0-4.91,0.19-7.09,1.46,0,0,2.63-2.36-0.91-4.45l-1.73-1.28s3.09-2.18,2.54-3.45c-0.54-1.27-0.54-1.54-0.54-1.54s1.82-1.27,0.64-6.45c-1.19-5.18-8.28-15.17-12-13.99,0,0-0.55-2.64-4.55-2.45,0,0-3.27,1.27-8.55-6.55-5.27-7.81-38.9-81.57-38.9-81.57l5.63,2.9s3,1.28,1.64-1.45c-1.36-2.72-2.18-1.36-10-11.63,0,0,0.09-2-1.64-4.45-1.72-2.45-4.09-5.63-3.72-6.27,0.36-0.63,2.54-2.99,6.45-3.18,3.91-0.18,5.91,1.28,8,1.46s8.18,1.09,13.18-3.27,7.09-17.72,7.09-21.44c0-3.73-0.82-16.536-5.91-20.17s-18.27-1.453-22.45,0.182-8.27,5.178-12.91,10.268l-2.91,0.18s-0.63-1.64-3.18-1.64-12.45,2.73-18.18,6.54c0,0-2.05,1.41-2.23,3.18,0,0-2.59-0.68-3.95-0.31-1.37,0.36-2.96,1.49-2.96,1.49l-11.09-0.04s-5.6,3.71-3.68,8.59c1.93,4.88,3.99,4.37,3.99,4.37l6.68-0.13s-1.22,5.38,0.97,5.75c0,0,1.81,0.27,1.9,2.18,0,0-8.45,4.54-4.54,11.63,3.91,7.08,10.82,3.27,10.82,3.27l6-4,6.09,14.72s-0.82,11.26,2.45,19.89c3.28,8.63,13.82,31.34,13.82,31.34s-10.54-10.9-25-5.99c-14.45,4.9-17.78,28.23-22.4,45.83-4.63,17.6-9.65,42.14-10.42,52.41-0.77,10.28-3.08,31.99,0.77,37,3.86,5.01,5.79,9.38,17.1,11.44,0,0-7.07,7.58-20.18,7.58,0,0-0.26-4.24-8.1-4.37s-39.08,0-84.34-2.96c0,0-1.67-1.28-4.37-0.89-2.7,0.38-3.86,1.02-3.86,2.18,0,0-30.08-3.6-38.31-35.72,0,0-2.31-6.42-2.06-16.83,0,0,1.23-0.77,1.55-2.44l1.48-0.25s0.83,1.54,3.08,0.96,6.43-2.83,6.43-2.83,3.21-1.73-0.26-2.63-2.7,1.48-6.55,0.64c-3.86-0.83-3.03,1.41-3.67,0.52-0.31-0.44-0.01-4.66,3.18-11.26,0.11-0.22,1.93-1.37,2.93-0.23,2.8,3.22,4.06,3.07,4.06-1.77,0-7.95-5.41-1.03-5.03-1.69,3.73-6.45,9.96-14.54,20.19-23.34,24.04-20.68,33.55-19.53,31.37-26.59-2.19-7.07-5.14-10.02-5.14-10.02s5.72,6.61,6.74,7.13c1.03,0.51,3.15,0.9,4.83-0.84,1.67-1.73,4.37-6.36,4.37-6.62,0-0.25,0.38-2.44-1.22-0.77-1.61,1.67-2.83,6.49-6.24,6.62s-5.98-8.16-9.26-8.29h-1.8s-3.21-2.12-2.82-3.72c0.38-1.61,3.4-1.22,4.05-1.16,0.64,0.07,7.45,1.42,7.45,1.42s1.8,0.64,3.28-0.52c1.48-1.15,4.18-1.93,4.24-4.88,0.07-2.96,0.26-12.27,1.8-17.92,1.55-5.66-2.18-13.24-3.6-14.65-1.41-1.41-3.66-2.89-9.12-3.34-5.47-0.45-27.13-0.38-37.16-1.15-10.03-0.78-41.65-8.36-44.61-9.13s-4.28-1.26-10.65-5.07c-6.36-3.82-13.54-5.54-21.72-3.64,0,0-10.19-6.63-18.19-5.45s-7.36,4-7.36,4.91-0.54,3.91,3.09,6.72c3.64,2.82,21.55,12.81,21.55,12.81s4.09,6.81,4.72,8.63c0.64,1.82,1.28,3.27,2.73,3.82,1.46,0.54,2.91,0.36,4.09,1.09,1.18,0.72,15.27,7.99,15.27,7.99s7.82,12.08,20.55,14.72c12.73,2.63,21.54,1,21.54,1l-0.09,1.18-8,3.27s-0.91,0.27-0.81,1.27c0.09,1,0.09,1,0.09,1l-52.91,0.54s0.64-2.63-4.36-2.99l-2.73-0.09-0.09-2,0.91-0.09v-1.82l-0.73-0.09s0.18-2.45-7.73-2.18-6.73,2.09-6.73,2.09l-1.18-0.09v2.36l2.46,0.45-0.09,0.91-2,0.09v0.91h-2.64l-3-3c-0.36-3.18,0-3.45-2.18-3.54,0,0,2.27-1.27,2.27-5.54s1.36-27.98-5.64-28.25c-6.99-0.28-66.56-1-66.56-1s-2.8-0.19-6.52-1.18c-3.73-1-6.55-3.73-21.73-3.46-15.18,0.28-14,0.09-18.18,2.55-4.18,2.45-5.28,4.63-5.28,8.08s-0.54,8.91-1.36,11.27,0.09,6.99,1.64,11.81c1.54,4.81,4.54,11.35,4.54,11.35l-4.91,3.36s-1.63,1.37-1.54,4.55-0.09,3.9,1.63,4.17c1.73,0.28,20.91,3,26,4.36l-7.54,13.54s-18.91,9.36-38.45,26.44l-19.1-0.28-1.09,1.46s-22.178-2.09-22.723,12.81c0,0-2.364,1.27-2.364,2.45,0,0-8.454,3.91-8.545,6.81-0.091,2.91-0.182,18.35-0.182,18.35s1.546,1.37,9.091,2.27c0,0,1,2,4.091,3l-6.364,5.63-23.545,58.69s-0.818,2,1.091,3,9-7.91,9-7.91-1.818,5.73,3.545,7.82c5.364,2.09,11.727,2.45,11.727,2.45s3.364,7.36,35.688,11.06z" fill="#000" fill-rule="evenodd" id="path5528" style="fill:#4490d2;fill-opacity:1"/>
    <path id="maze" v:start='55x266' v:end='643x232' v:res1='34x12' v:res2='44x16' v:res3='54x20' v:border="#5cacef" v:wall="#4490d2" d="m 55.681001,278.65635 c -1.881115,-29.72162 12.039135,-60.94812 39.879636,-77.50194 27.840503,-16.55381 47.404093,-41.38452 49.661433,-49.66143 2.25734,-8.2769 148.23185,-6.77201 153.49898,0.75245 5.26712,7.52446 13.54402,12.79158 0,38.37474 -13.54403,25.58316 -22.57338,60.94812 -9.7818,72.98726 12.79158,12.03913 79.00682,26.33561 118.88646,26.33561 39.87964,0 64.39781,-5.49011 67.72013,-20.31605 3.32232,-14.82594 -8.71181,-10.9037 -9.78179,-21.06848 -1.06998,-10.16478 -1.29991,-86.23519 24.07827,-94.80819 24.02332,-8.11532 63.95791,7.52446 72.98726,30.09784 9.02935,22.57338 11.80058,39.77797 29.34539,32.35517 9.7818,-4.13845 39.50342,3.57412 50.50794,9.7818 11.00452,6.20768 -1.97517,22.94961 -12.88564,31.60274 18.81115,15.80135 18.81115,24.07826 24.83072,40.63207 6.01957,16.55381 4.51467,37.6223 -3.00979,50.41388 -10.47578,17.80881 -17.04982,25.74088 -50.41388,25.58317 -33.36405,-0.1577 -43.26564,-13.73214 -49.75549,-26.71184 -6.48984,-12.97969 -5.92551,-30.47406 -11.94508,-39.50341 -9.92105,-14.88159 -29.34538,-13.54402 -38.37474,-8.2769 -9.59635,5.59787 -22.57338,24.83071 -53.42366,24.83071 -30.85029,0 -124.90603,-3.76222 -164.03322,-5.26712 -39.21379,-1.50823 -66.21524,4.51468 -78.25439,16.55381 -10.23437,10.23437 -32.35517,38.37475 -57.93833,37.6223 -25.58317,-0.75244 -44.39432,-9.02935 -53.423668,-27.08805 -10.250952,-20.50192 0.75245,-24.07828 -6.772011,-36.86986 -8.253222,-14.03047 -29.721615,-1.12866 -31.60273,-30.85028 z" style="fill:none;stroke:none;stroke-width:1px;stroke-linecap:butt;stroke-linejoin:miter;stroke-opacity:1;fill-opacity:1" transform="translate(46.666668,81.666663)"/>
  </g>
</svg>