<svg width="100%" height="100%" xmlns:v="http://www.vectomatic.org" viewBox="0 0 334.42624 259.83606" version="1.0" xmlns="http://www.w3.org/2000/svg" xmlns:svg="http://www.w3.org/2000/svg">
  <g transform="translate(-152.459, -70.4918)">
    <path d="M 261.02535,177.9186 C 261.02535,177.9186 283.46409,230.27566 358.25991,245.23482 L 352.14023,283.65264 C 338.20723,285.18483 318.71256,289.86054 320.44993,308.42012 C 325.0485,300.73537 332.41214,299.06886 340.58089,297.25188 C 340.21157,301.88258 340.11813,306.4676 340.45713,311.09152 C 344.83701,303.01246 351.12031,297.93184 358.25991,296.91192 C 362.57775,296.2951 367.75863,297.46124 368.97381,295.35644 C 370.25943,293.12974 366.07947,292.39658 366.07947,290.11228 C 366.07947,284.33264 368.11933,261.89388 377.97879,251.35446 C 377.97879,251.35446 400.75751,248.9746 403.81733,271.41336 C 406.87715,293.8521 400.41751,296.57194 397.35769,297.93184 C 386.62298,302.95057 365.95411,303.23281 360.37353,315.82192 C 369.15251,313.58344 378.11229,312.87731 387.15827,312.55104 C 386.06266,316.62224 384.85442,320.64477 384.45197,324.85224 C 389.21169,322.47238 399.73755,314.9309 410.27697,313.91096 C 415.08849,313.44534 420.60195,314.75102 421.93619,312.44004 C 422.95663,310.67258 416.45575,308.87774 415.71667,301.67166 C 414.35675,288.41238 418.43653,275.15314 434.75559,259.17402 C 451.07471,243.19492 474.87907,237.42577 481.33297,196.76158 C 488.48683,151.68717 479.83479,127.19802 459.50509,107.41 C 439.15095,87.598188 397.01773,75.924298 372.53911,75.244338 C 348.06045,74.564378 331.74139,77.284258 306.58281,89.523538 C 281.42419,101.76288 278.70437,116.72202 258.98547,114.68212 C 211.28816,107.62574 194.50541,120.46538 190.98925,166.69922 C 191.32925,187.77802 191.32925,187.77802 191.32925,187.77802 C 191.32925,187.77802 161.34689,223.06044 156.99117,272.0933 C 156.99117,272.0933 154.41605,286.50003 158.49067,292.59979 C 165.53167,268.12344 173.79089,225.44584 203.60083,195.15508 C 203.60083,195.15508 234.37239,199.48232 261.02535,177.9186 z " style="fill:#f0cc00;fill-rule:evenodd;stroke:none;stroke-width:1px;stroke-linecap:butt;stroke-linejoin:miter;stroke-opacity:1;fill-opacity:1"/>
    <path id="maze" v:res3="36x28" v:res2="26x20" v:res1="20x15" v:start="150x35" v:end="315x150" v:border="#cfbf00" v:wall="#f0cc00"  d="m 121.80095,70.736534 c -0.73789,-19.03766 9.47867,-26.066351 11.84834,-27.962086 2.36967,-1.895734 32.71525,-22.562827 53.08057,-24.170615 18.00948,-1.421802 63.87002,-2.267702 94.31279,20.85308 28.06134,21.312123 33.80658,19.986921 36.96683,57.345971 2.67724,31.649126 -6.63507,57.819906 -21.80095,65.876776 -15.16588,8.05687 -69.18352,1.05174 -82.93839,-1.89573 C 200,157.94033 173.20796,147.30304 156.3981,135.66544 137.91469,122.86923 128.38158,113.15467 125.59242,101.06829 122.74881,88.746012 122.27488,82.9642 121.80095,70.736534 z" style="visibility:hidden;fill:#cfbf00;stroke:none;stroke-width:1px;stroke-linecap:butt;stroke-linejoin:miter;stroke-opacity:1;fill-opacity:1" transform="translate(152.459,70.4918)"/>
  </g>
</svg>