<svg xmlns:v="http://www.vectomatic.org" version="1.0" viewBox="0 0 236.83 196.89" xmlns="http://www.w3.org/2000/svg" xmlns:svg="http://www.w3.org/2000/svg">
  <g id="g6150" transform="translate(-255.56337,-288.67172)">
    <g id="g6152" transform="matrix(-0.8078906,0.5893325,-0.5893325,-0.8078906,884.30309,418.71191)">
      <path d="M262.11,340.3c1.97-3.4,32.39-20.4,48.96-32.87,15.56-11.71,17.48-16.78,17.48-16.78s-10.49-12.59-14.69-18.53c-4.19-5.95-2.44-16.79,1.75-20.28l-4.39-7.26c-2.98-4.94,2.07-9.41,7.6-3.7l5.53,5.71c10.14-2.79,17.49,3.5,21.33,7,3.85,3.49,12.4,13.06,14.69,13.28,2.1,0.21,10.92-4.96,10.49-6.64-2.52-9.88,0.7-15.38,7.34-9.09,7.38,6.99,11.89,13.99,11.89,13.99s54.05-24.13,55.25-22.38c4.45,6.52,18.32,23.7,21.33,26.22,4.02,3.38-49.14,40.15-67.14,56.65-1.05,0.96-2.71,10.92-1.4,12.93,10.36,15.89,27.68,44.96,37.42,53.85,5.72,5.23,23.45-1.46,26.92-0.35,4.11,1.32,16.95,14.21,17.48,15.39,0.95,2.08-14.75,12.44-17.13,14.68-1.62,1.53-6.74-3.43-8.39-1.05-1.34,1.94,0.43,17.99-0.7,19.24-7.14,7.79-25.66,16.38-33.22,17.83-2.33,0.45-0.6-15.16-2.8-16.09-1.44-0.6-11.13,3.16-12.58,2.1-2.14-1.55-16.24-15.36-15.74-17.83,0.88-4.4,25.66-18.96,23.43-22.38-14.77-22.68-33.92-36.92-49.65-60.49-22.42,4.71-80.11,23.98-81.47,22.38-2.66-3.14-20.44-24.06-19.59-25.53zm104.9-66.43l11.54-3.15s-1.4-4.9-3.15-5.24c-1.74-0.35-9.79,4.54-8.39,8.39z" fill="#000" fill-rule="evenodd" id="path6154" stroke="#000" stroke-linecap="butt" stroke-linejoin="miter" stroke-width="1px" style="stroke:none;fill:#d40000"/>
      <path id="maze" v:start='8x41' v:end='220x111' v:res1='20x18' v:res2='25x22' v:res3='35x29' v:border="#851717" v:wall="#d40000" d="m 124.4044,190.1913 c 0.95696,-0.47848 35.2302,-64.80974 41.2884,-68.6148 4.92931,-3.09602 32.25591,1.75532 37.36686,2.41516 4.78478,0.61774 15.68755,-0.86191 17.51132,-9.87085 1.71239,-8.45878 -1.73671,-7.48604 -5.08606,-11.79234 -3.34935,-4.30631 -24.77958,-6.72147 -28.73906,-11.020187 -2.29219,-2.488569 0.45266,-12.591674 0.96454,-18.992294 0.51188,-6.400621 19.94925,-55.812367 19.94925,-55.812367 L 188.04203,8.8479663 137.3385,72.817237 c 0,0 -82.004611,-18.506227 -82.961568,-22.334055 -0.956957,-3.827828 -2.647593,-7.759178 -2.075938,-12.278417 0.571656,-4.519239 3.680985,-17.394837 3.680985,-17.394837 L 41.627626,17.460579 c 0,0 -6.835604,6.217546 -10.820213,6.382242 -3.984609,0.164696 -10.232839,-4.946807 -10.232839,-4.946807 L 7.9872906,40.242752 20.517651,57.091961 10.503757,65.731137 5.5843347,79.935359 20.721416,80.457711 39.0808,66.72868 c 6.479806,-4.845557 68.9855,17.894876 73.70846,23.76949 4.72295,5.874614 7.01514,10.85057 5.10123,17.07079 -1.91391,6.22022 -18.366971,74.96669 -18.366971,74.96669 l 24.880881,7.65565 z" style="fill:none;stroke:none;stroke-width:1px;stroke-linecap:butt;stroke-linejoin:miter;stroke-opacity:1;fill-opacity:1" transform="matrix(-0.80789059,-0.58933249,0.58933249,-0.80789059,431.31599,475.59499)"/>
    </g>
    <path d="M372.75,206.69c-107.78,0-194.69,86.9-194.69,194.69,0,107.78,86.91,194.71,194.69,194.71s194.72-86.94,194.72-194.71c0-107.78-86.94-194.69-194.72-194.69z" fill="none" style="color:#000000;marker-start:none;marker-mid:none;marker-end:none;text-align:center;enable-background:accumulate;"/>
  </g>
</svg>