<svg width="100%" height="100%" version="1.0" viewBox="0 0 463.568 303.849" xmlns="http://www.w3.org/2000/svg" xmlns:svg="http://www.w3.org/2000/svg" xmlns:v="http://www.vectomatic.org">
  <g>
    <path d="M 46.454,298.953 C 48.542,303.236 53.726,305.073 58.01,302.984 C 62.33,300.896 64.13,295.713 62.042,291.392 C 59.954,287.108 54.806,285.272 50.486,287.36 C 46.166,289.448 44.366,294.633 46.454,298.953 L 46.454,298.953 z " style="fill: white; fill-rule: evenodd;"/>
    <path d="M 110.678,99.225 L 103.982,98.757 L 103.982,98.757 C 102.974,101.781 101.21,104.121 98.15,105.921 C 95.162,107.613 93.326,107.685 85.982,109.485 C 78.386,111.141 63.878,113.049 53.582,116.469 C 43.214,119.853 32.738,123.777 24.638,130.041 C 16.43,136.269 9.374,143.973 5.27,153.98 C 1.202,163.953 0.266,179.396 0.086,189.621 C -0.31,199.736 1.058,207.152 3.218,214.352 C 5.306,221.444 8.33,227.024 12.434,231.668 L 12.434,231.668 C 11.138,234.08 10.994,236.564 12.146,239.12 C 13.262,241.603 15.53,244.16 19.094,246.788 L 19.094,246.788 C 20.93,253.195 25.43,259.964 32.594,267.38 C 39.83,274.724 51.386,285.38 61.97,290.744 C 72.302,296 83.75,299.023 94.658,298.987 C 105.602,298.735 117.338,294.668 126.95,289.843 C 136.382,284.947 144.446,276.091 151.142,270.367 C 157.55,264.679 161.186,258.991 166.082,255.93 C 171.05,252.762 175.694,251.394 180.554,251.682 L 180.554,251.682 L 183.938,246.462 L 183.938,246.462 C 181.382,245.525 179.582,243.87 178.394,241.494 C 177.098,238.973 175.838,235.914 176.846,231.882 C 177.782,227.814 179.942,222.414 184.442,217.482 C 188.906,212.335 197.87,205.674 203.414,201.93 C 208.85,198.186 213.098,196.314 216.842,195.342 C 220.478,194.226 222.35,193.686 225.374,195.666 C 228.362,197.682 231.278,201.354 234.519,207.078 L 234.519,207.078 L 241.827,207.437 L 241.827,207.437 C 243.052,204.593 244.851,202.29 247.227,200.129 C 249.531,198.005 250.971,196.493 255.975,194.765 C 261.015,193.037 269.582,192.065 276.962,189.473 C 284.234,186.665 293.162,182.957 299.282,178.349 C 305.259,173.705 309.614,168.45 312.89,161.753 C 316.165,154.841 318.47,146.453 318.541,137.562 C 318.434,128.49 316.417,119.13 312.493,108.51 L 312.493,108.51 L 414.517,53.214 L 414.517,53.214 C 417.865,50.982 421.357,48.822 425.281,46.59 C 429.134,44.286 433.237,42.054 437.737,39.75 L 437.737,39.75 C 438.313,40.47 439.249,40.65 440.689,40.146 C 442.093,39.57 443.749,38.562 445.945,36.726 L 445.945,36.726 C 446.449,39.282 447.565,40.578 449.293,41.01 C 451.022,41.226 454.873,40.11 456.134,38.778 C 457.322,37.374 457.249,35.646 456.205,33.162 L 456.205,33.162 C 458.401,32.118 459.769,31.038 460.309,29.922 C 460.777,28.734 460.416,27.654 459.229,26.394 L 459.229,26.394 C 461.893,26.466 463.333,25.566 463.548,23.55 C 463.584,21.39 462.181,15.774 460.452,14.334 C 458.796,12.93 456.564,13.29 453.757,15.414 L 453.757,15.414 C 452.964,13.685 452.173,12.678 450.841,12.39 C 449.544,12.03 448.032,12.534 446.16,13.614 L 446.16,13.614 C 445.368,11.382 444.36,9.834 442.848,9.366 C 441.3,8.898 438.672,9.258 437.34,10.302 C 435.9,11.094 435.035,13.146 434.892,14.514 C 434.747,15.882 435.216,17.07 436.44,18.366 L 436.44,18.366 C 434.424,18.654 432.948,19.23 431.868,20.238 C 430.752,21.21 430.284,22.47 430.177,24.162 L 430.177,24.162 C 430.357,23.478 427.656,24.342 422.076,26.754 C 416.316,29.13 408,32.946 396.444,38.346 L 396.444,38.346 L 298.992,82.914 L 298.992,82.914 C 297.553,78.378 294.348,73.698 289.524,68.874 C 284.52,63.906 277.284,57.138 269.904,53.826 C 262.38,50.514 253.308,48.822 245.46,49.182 C 237.576,49.362 230.52,51.81 223.176,55.41 C 215.688,59.082 206.616,66.966 201.216,70.89 C 195.744,74.634 194.592,76.686 190.812,78.018 C 186.96,79.206 183.144,79.386 178.788,78.414 L 178.788,78.414 L 174.756,84.57 L 174.756,84.57 C 177.888,87.09 179.58,89.898 179.688,92.994 C 179.688,96.09 179.076,99.474 175.332,103.002 C 171.408,106.35 163.992,110.706 157.116,113.298 C 150.24,115.89 141.456,118.23 134.652,118.374 C 127.74,118.338 120.252,116.646 116.22,113.442 C 112.19,110.205 110.39,105.561 110.678,99.225 L 110.678,99.225 z " style="fill-rule:evenodd;stroke:#000000;stroke-width:0.03600000000000000;stroke-miterlimit:10;fill:#a02a01;fill-opacity:1;stroke-opacity:1"/>
    <path d="M 395.727,39.645 L 390.219,28.593 L 390.219,28.593 C 389.462,28.377 388.958,28.269 388.851,27.873 C 388.706,27.477 388.815,27.009 389.319,26.469 L 389.319,26.469 C 389.103,25.605 388.635,25.029 388.059,24.885 C 387.411,24.669 386.582,25.497 385.575,25.425 C 384.495,25.281 382.804,25.029 381.867,24.129 C 380.751,23.085 379.671,21.573 379.743,19.449 C 379.779,17.217 381.003,13.221 382.299,11.349 C 383.524,9.477 385.251,8.541 387.339,8.397 C 389.392,8.217 392.415,8.721 394.323,10.053 C 396.159,11.241 397.887,13.509 398.103,15.489 C 398.139,17.397 395.259,20.349 394.863,21.573 C 394.395,22.797 394.611,23.121 395.511,22.689 L 395.511,22.689 C 395.834,22.725 396.122,22.905 396.231,23.373 C 396.338,23.769 396.267,24.345 396.159,25.101 L 396.159,25.101 L 401.523,35.937 L 401.523,35.937 C 399.614,37.161 397.67,38.385 395.727,39.645 L 395.727,39.645 z " style="fill-rule: evenodd; stroke: black; stroke-width: 0.036; stroke-miterlimit: 10;"/>
    <path d="M 412.646,30.825 L 406.454,18.045 L 406.454,18.045 C 406.778,17.181 406.706,16.569 406.238,16.209 C 405.77,15.849 404.834,15.669 403.574,15.813 L 403.574,15.813 C 403.898,14.049 403.754,12.141 403.142,10.089 C 402.386,7.893 400.118,4.833 399.829,3.285 C 399.541,1.701 400.729,1.125 401.594,0.729 C 402.386,0.153 403.753,-0.423 404.726,0.513 C 405.518,1.449 405.59,4.365 406.886,6.345 C 408.11,8.253 409.909,9.873 412.285,11.601 L 412.285,11.601 C 411.853,12.105 411.674,12.717 411.745,13.149 C 411.745,13.581 412.069,13.977 412.573,14.337 L 412.573,14.337 L 418.945,27.513 L 413.545,30.789 L 412.646,30.825 L 412.646,30.825 z " style="fill-rule: evenodd; stroke: black; stroke-width: 0.036; stroke-miterlimit: 10;"/>
    <path d="M 412.574,51.777 L 418.73,64.593 L 418.73,64.593 C 419.558,64.845 419.99,65.277 420.026,65.889 C 420.062,66.429 419.486,67.257 418.694,68.229 L 418.694,68.229 C 420.242,69.093 421.646,70.353 422.906,72.153 C 424.202,73.953 425.03,77.697 426.219,78.957 C 427.227,80.037 428.343,79.497 429.279,79.137 C 430.143,78.669 431.547,78.129 431.403,76.833 C 431.115,75.537 428.882,73.593 428.199,71.541 C 427.479,69.345 427.263,66.933 427.407,64.017 L 427.407,64.017 C 426.651,63.981 426.183,63.801 425.859,63.477 C 425.535,63.153 425.355,62.649 425.463,62.109 L 425.463,62.109 L 419.056,48.897 L 413.152,51.129 L 412.574,51.777 L 412.574,51.777 z " style="fill-rule: evenodd; stroke: black; stroke-width: 0.036; stroke-miterlimit: 10;"/>
    <path d="M 425.75,43.245 L 431.042,54.405 L 431.042,54.405 C 430.646,55.089 430.502,55.665 430.754,55.989 C 430.935,56.349 431.402,56.457 432.158,56.457 L 432.158,56.457 C 432.662,57.213 432.806,57.825 432.59,58.437 C 432.194,59.013 431.223,59.085 430.647,60.021 C 429.962,60.885 429.207,62.325 429.351,63.765 C 429.351,65.169 430.035,66.969 431.691,68.337 C 433.382,69.525 437.271,71.181 439.611,71.361 C 441.843,71.433 443.607,70.677 445.047,69.237 C 446.415,67.761 447.892,64.809 448.108,62.721 C 448.215,60.489 447.676,57.681 446.2,56.385 C 444.724,55.161 440.512,55.449 439.396,55.161 C 438.136,54.801 437.992,54.261 438.963,53.937 L 438.963,53.937 C 439.108,53.577 439.071,53.253 438.856,52.965 C 438.568,52.677 438.1,52.209 437.452,51.957 L 437.452,51.957 L 432.305,41.013 L 432.305,41.013 C 430.143,41.733 427.946,42.489 425.75,43.245 L 425.75,43.245 z " style="fill-rule: evenodd; stroke: black; stroke-width: 0.036; stroke-miterlimit: 10;"/>
    <path id="maze" v:res3="40x28" v:res2="30x21" v:res1="20x14" v:start="85x270" v:end="275x75" v:border="#76371a" v:wall="#a02a01" d="M 116.53081,129.05278 c -20.028728,-9.10397 -50.07183,7.28317 -68.27977,19.11834 -18.20794,11.83516 -21.849528,20.02873 -19.118337,45.51984 2.731191,25.49112 9.791992,39.09671 27.31191,60.99661 18.207939,22.75991 44.609457,20.02872 60.086197,10.92476 15.47675,-9.10397 39.14708,-37.32628 50.98224,-49.16144 11.83516,-11.83516 34.59508,-35.50549 64.63818,-30.95351 30.0431,4.55199 54.58127,-12.57961 65.54858,-37.32627 9.10397,-20.54221 0,-28.01541 -9.10397,-49.161428 C 278.08147,74.587683 264.92552,77.16015 240.3448,77.16015 c -24.58072,0 -29.1327,7.283175 -55.53421,31.86389 -16.11599,15.00454 -48.25105,29.13271 -68.27978,20.02874 M 172.97543,172.75183 c 0,9.55317 -8.15198,17.29754 -18.20794,17.29754 -10.05597,0 -18.20794,-7.74437 -18.20794,-17.29754 0,-9.55317 8.15197,-17.29754 18.20794,-17.29754 10.05596,0 18.20794,7.74437 18.20794,17.29754 z" style="fill:#76371a;stroke:none;stroke-width:1px;stroke-linecap:butt;stroke-linejoin:miter;stroke-opacity:1;fill-opacity:1" />
  </g>
</svg>