<svg xmlns:v="http://www.vectomatic.org" version="1.0" viewBox="0 0 231.94 215.04" xmlns="http://www.w3.org/2000/svg" xmlns:svg="http://www.w3.org/2000/svg">  
  <g id="g6811" transform="translate(-72.029946,-105.45803)">
    <path d="M188,171.61c-89.237-163.62-178.47,38.5,0,144.38,178.47-105.88,89.24-308,0-144.38z" fill="none" id="path6813" stroke="#000" stroke-linecap="butt" stroke-linejoin="miter" stroke-width="0.92676508px" style="stroke:none;fill:#008000"/>
    <path id="maze" v:start='115x199' v:end='186x13' v:res1='20x20' v:res2='25x25' v:res3='36x36' v:border="#179432" v:wall="#008000" d="M 114.83051,199.36203 C 77.966102,173.51458 59.322034,152.32813 50.847458,140.04 42.778669,128.34026 23.543802,93.348643 21.610169,74.785763 19.491525,54.44678 26.225427,26.170842 32.627118,18.429831 c 8.713925,-10.5369949 21.61017,-8.8983056 28.81356,-4.661017 7.20339,4.237288 28.18388,26.899571 36.864407,40.254237 5.508475,8.474576 18.644065,25.423729 18.644065,25.423729 0,0 10.02144,-16.610498 18.22034,-27.542373 5.08475,-6.779661 21.40038,-28.263959 32.20339,-34.745763 10.59322,-6.355933 23.09963,-6.506817 27.9661,-0.423729 6.77967,8.474577 14.23134,23.318444 15.25424,35.593221 1.27118,15.254237 0,33.474579 -8.89831,50.423724 -4.8085,9.15903 -19.61447,36.73524 -31.77966,49.57628 -12.16519,12.84103 -53.81356,48.30508 -55.08474,47.03389 z" style="fill:none;stroke:none;stroke-width:1px;stroke-linecap:butt;stroke-linejoin:miter;stroke-opacity:1;fill-opacity:1" transform="translate(72.029941,105.45803)"/>
  </g>
</svg>