<svg 
	overflow="visible" version="1.1" viewBox="0 0 417.922 224.146" 
	xmlns="http://www.w3.org/2000/svg" xmlns:svg="http://www.w3.org/2000/svg"
	xmlns:v="http://www.vectomatic.org">
	<g>
		<path
			d="M96.242,137.37c-6.558,7.242-18.018-0.87-11.618-8.94 C90.477,121.049,98.794,130.387,96.242,137.37"
			fill-rule="evenodd" />
		<path
			d="M315.362,184.89c2.385,1.389,3.159,4.08,3.303,6.672 c0.091,1.625-1.104,7.13,0.167,7.859c4.235,2.433,10.292-4.253,15.021-4.478c8.574-0.408,3.397,10.549,0.19,13.699 c-4.966,4.879-11.944,7.448-18.675,8.689c-5.385,0.994-13.795,1.558-18.683-1.344c-4.2-2.494-6.963-6.929-11.532-8.877 c-6.037-2.574-12.103,0.932-17.382,3.747c-6.853,3.654-12.928,7.102-20.978,5.424c-5.754-1.2-10.202-5.074-15.191-7.632 c-6.323-3.243-15.247-1.465-21.604,0.753c-15.364,5.359-27.021,15.337-44.074,9.622c-11.805-3.956-25.769-15.172-38.715-10.439 c-7.357,2.689-13.625,7.174-20.517,10.753c-7.25,3.764-14.788,4.863-22.886,4.806c-6.145-0.043-11.828-1.007-17.264-3.957 c-4.983-2.704-5.936-9.379,0.18-11.537c-7.627-1.351-15.436,0.406-23.073-0.873c-5.325-0.892-15.184-0.584-17.124-6.813 c-1.535-4.929,1.804-11.021,7.317-11.034c3.101-0.006,6.912,0.448,10.08,0.721c4.083,0.35,8.202,0.243,12.274-0.197 c7.039-0.762,14.055-2.494,20.528-5.387c4.633-2.071,13.269-6.218,13.518-12.177c-0.095-2.557-15.216,5.32-16.947,5.922 c-7.618,2.645-15.581,4.63-23.631,5.274c-6.974,0.559-14.288,0.368-21.226-0.634c-8.628-1.246-11.619-6.034-15.956-12.962 c-8.036-12.835-12.6-28.282-12.48-43.44c0.122-15.427-0.672-33.508,5.288-47.997c4.703-11.435,11.107-22.257,19.654-31.249 c19.755-20.783,48.783-26.752,76.089-30.028c17.497-2.099,35.255-0.429,52.845-1.559c16.224-1.042,31.632-1.175,47.486,2.351 c13.827,3.076,27.368,9.211,39.223,17.058c11.783,7.801,20.389,17.661,29.47,28.271c4.907,5.734,8.411,12.477,12.906,18.513 c5.186,6.965,10.647,13.733,16.438,20.206c5.237,5.856,10.661,11.983,16.502,17.239c5.89,5.301,13.615,8.019,21.061,10.314 c12.926,1.172,27.572,0.812,37.792-8.553c5.03-4.609,6.789-10.924,6.166-17.608c-0.555-5.942-2.254-15.076-8.438-17.692 c-7.319-3.096-11.764,4.21-15.223,9.366c-4.847,7.224-8.133,15.124-15.238,20.346c-4.974,3.656-13.981,3.606-19.337,0.925 c-6.992-3.501-9.499-9.334-11.717-16.44c-4.524-14.5-6.201-28.75-17.123-40.296c-4.547-4.808-9.989-8.681-15.757-11.889 c-3.015-1.676-6.125-3.178-9.285-4.56c-3.681-1.608-7.869-2.104-11.28-4.32c-12.172-7.904-11.572-26.574,0.845-33.817 c13.623-7.946,30.122-4.358,44.893-5.43c26.15-1.899,54.908,9.727,74.683,26.477c10.86,9.2,19.048,20.892,25.553,33.386 c6.307,12.115,11.239,26.27,13.431,39.753c4.179,25.702-4.897,54.1-24.974,71.121c-10.186,8.636-21.635,13.35-34.37,16.439 C343.201,190.868,329.636,186.904,315.362,184.89"
			fill="#0054A4" fill-rule="evenodd" />
		<path
			d="M86.882,126.57c-8.909,4.54-1.331,18.344,7.479,12.454 C101.744,134.088,94.058,124.8,86.882,126.57"
			fill="#FFFFFF" fill-rule="evenodd" />
		<path
			id="maze" d="m 99.725973,176.65744 27.543367,16.14611 c 0,0 109.22368,2.84931 128.2191,-6.6484 18.99543,-9.49771 40.84017,-51.28764 18.04566,-75.98169 -22.79451,-24.694055 -47.48856,-71.232842 -79.78078,-71.232842 -32.29222,0 -79.78078,-0.949771 -82.63009,-8.547941 -2.84932,-7.598169 -28.493138,1.899543 -28.493138,1.899543 0,0 -38.940618,19.945194 -30.392678,37.041075 8.547941,17.095881 70.283066,43.689475 68.383526,54.136955 -1.89954,10.44748 -19.9452,54.13696 -20.894967,53.18719 z"
			style="fill:darkblue;stroke:none;visibility:hidden;" v:res3="40x28" v:res2="30x20" v:res1="20x14" v:start="103x177" v:end="106x28" v:border="darkblue" v:wall="#0054A4"/>
	</g>
</svg>