<svg xmlns:v="http://www.vectomatic.org" enable-background="new 0 0 454.125 337.067" overflow="visible" version="1.1" viewBox="0 0 454.125 337.067" xmlns="http://www.w3.org/2000/svg" xmlns:svg="http://www.w3.org/2000/svg">
  <path clip-rule="evenodd" d="M415.95,337.07h-408.95c-3.849-23.847,26.062-13.934,43.995-15.998-3.824-9.023-11.526-14.627-13.998-24.997-5.78-24.245,4.159-48.756,8.999-65.992,2.209-7.867,8.602-24.756,7.999-30.996-0.814-8.432-10.854-16.414-13.998-22.997-4.162-8.714-4.388-16.949-10.999-23.997-16.461,0.14-26.757-5.9-28.998-19.99,5.627-5.25,14.716-1.287,23.997-2,8.446-18.952,24.601-31.2,45.994-38.995,15.131-5.513,34.028-10.874,49.994-9.999,18.438,1.01,35.367,13.442,52.994,13.998,13.065,0.412,26.347-5.899,39.995-7.999,44.798-6.893,75.213,11.096,100.99,23.997-2.401-15.186-20.89-18.504-36.995-25.997-14.563-6.775-33.488-15.043-36.996-26.997-2.455-8.367,0.401-20.085,8.999-21.998,12.541-2.789,23.073,16.518,36.995,14.998,6.787-9.544,0.326-32.336,11.999-36.995,8.796,3.869,8.192,17.138,16.998,20.997,3.664-4.697,6.571-11.004,9.998-17.998,3.254-6.638,5.004-16.001,11.999-16.998,11.244-1.601,19.744,14.868,19.997,20.998,0.774,18.711-25.314,39.383-19.997,57.993,1.979,6.925,12.892,9.968,16.998,13.999,5.204-5.828,13.185-5.938,13.998-13.999,0.588-5.832-7.944-13.296-6.999-20.997,0.457-3.721,2.624-7.555,8.999-9.999,8.693,3.971,10.952,14.378,19.997,17.998,7.444-6.887,9.654-19.009,24.997-17.998,4.347,10.973,3.357,23.746-1,31.996-5.797,10.977-21.403,14.601-28.996,21.997,15.326,1.484,30.382,6.948,39.995,13.999,8.332,6.112,23.752,16.725,26.996,23.997,2.458,5.509,3.327,17.09,0,21.997-3.914,5.772-14.941,4.558-24.997,4.999-5.295,0.233-11.756,1.95-15.998,1-6.461-1.446-13.105-13.052-19.997-12.998-4.389,0.034-15.966,11.54-19.997,15.998-6.406,7.082-13.515,14.923-14.998,21.997-1.696,8.084,3.772,15.645,5.999,22.997-3.863,3.525-7.041,8.761-12.999,7.999-6.007-0.768-12.478-11.669-12.998-20.997-0.325-5.837,3.566-11.201,4-16.998,0.502-6.718-2.159-11.069-2-15.998-8.378-0.267-18.139,6.442-23.997,11.998,11.148,22.415-4.588,37.137-5.999,60.993-0.421,7.105,1.979,16.104,2.999,24.996,1.061,9.241,0.707,18.298,3,24.997,2.185,6.383,13.773,26.01,19.997,27.997,9.111,2.908,24.526,0,37.995,0,19.89-0.01,46.35-5.39,43.99,15.99zm-290.97-124.99c-13.834,19.367-2.7,36.858,6,54.993,8.329,17.361,17.25,31.529,18.998,53.993,36.996-0.667,76.656,1.332,111.99-1-5.07-4.898-13.08-2.249-14.999-8.999-1.354-4.762,3.947-9.493,4-15.998-15.256-22.595,4.659-60.86-5.999-84.989h-2c-33.59,12.86-83.28,15.6-117.99,2.01zm137.99,64.99c5.849,6.148,2.273,14.997,4,22.997,1.891,8.765,10.545,14.307,12.998,20.998,10.004-0.662,22.657,1.326,30.996-1-1.673-2.327-2.611-5.388-2.999-8.999-4.812-1.187-9.175-2.824-11.999-5.999,3.846-19.551-4.448-29.641-7.999-44.995-2.873-12.422-3.512-28.967-6.999-37.995-6.9,17.44-13.22,35.45-18,54.99zm-206.98-20.99c-4.156,7.52-7.516,21.993-5,32.996,2.684,11.733,15.749,15.698,22.997,24.996,1.972,1.695,0.375,6.958,4,7h54.993c-4.72-8.499-2.354-17.787-5-24.997-1.348-3.675-7.021-12.493-8.999-14.998-5.624-7.123-14.39-10.095-18.998-17.998-5.797-9.943-6.727-19.921-11.998-32.996-0.057-0.609-0.15-1.184-1-1-7.109,7.23-26.072,18.1-30.991,27z" fill-rule="evenodd" id="path3826" style="fill:#f58383;fill-opacity:1"/>
  <path id="maze" v:start='35x132' v:end='333x152' v:res1='20x8' v:res2='30x12' v:res3='38x15' v:border="#ca6969" v:wall="#f58383" d="M 70.695399,102.76526 C 121.69708,87.111275 103.0133,91.151012 117.65734,91.655979 c 14.64405,0.504967 28.27816,14.644051 46.45698,13.634111 18.17882,-1.00993 46.96194,-13.129144 63.12089,-13.634111 16.15895,-0.504967 63.62586,11.614241 80.28978,26.258291 16.66391,14.64405 38.88247,32.3179 19.18875,45.95201 -19.69372,13.63411 -57.06129,33.8328 -96.44873,40.39737 -39.38743,6.56457 -73.22023,11.10928 -105.03316,0 C 93.41892,193.15437 59.081155,192.64941 46.961944,170.43085 34.842732,148.2123 31.81293,127.50864 41.407306,117.91427 c 9.594375,-9.59438 28.783126,-13.63411 29.288093,-15.14901 z" style="fill:none;stroke:none;stroke-width:1px;stroke-linecap:butt;stroke-linejoin:miter;stroke-opacity:1;fill-opacity:1" transform="matrix(1.000011,0,0,1.000011,0,-0.0033611)"/>
</svg>