<svg xmlns:v="http://www.vectomatic.org" enable-background="new 0 0 229.006 242.912" overflow="visible" version="1.1" viewBox="0 0 229.006 242.912" xmlns="http://www.w3.org/2000/svg" xmlns:svg="http://www.w3.org/2000/svg">
  <g>
    <path clip-rule="evenodd" d="M229.006,192.032c0,16.96,0,33.92,0,50.88c-73.44,0-146.879,0-220.32,0   c0-2.4,0-4.8,0-7.2c-2.097-1.288-4.482,0.667-6.72-0.48c-1.367-1.642-2.171-3.042-1.92-4.8c0.28-1.954,2.591-2.632,4.32-4.319   c0.774-0.756,2.091-1.989,2.4-2.4c0.333-0.445,0.135-1.057,0.48-1.44c1.339-1.489,2.939-2.104,3.36-3.359   c0.74-1.447,0.115-3.629,0.96-4.32c0.118-0.097-0.045-0.798,0-0.96c0.455-1.61,0.607-3.171,0.96-4.8   c0.291-1.34,0.856-2.943,0.96-3.36c0.595-2.378,0.166-2.956,0-4.8c-0.08-0.886,0.061-1.857,0-2.88   c0.484,0.101,0.319-0.238,0.48-0.48c1.044-1.565,2.268-2.257,3.36-3.359c1.395-1.408,3.205-2.464,3.36-4.32   c0.096-1.156-0.445-2.54-0.96-3.36c-0.897-1.43-1.869-1.439-2.88-2.399c-0.101-0.539-0.533-0.747-0.96-0.96   c-0.168-2.552-1.131-4.31-1.44-6.721c-0.132-0.908-1.34-1.271-1.92-1.92c-0.664-0.743-0.675-1.288-0.96-1.92   c-0.072-0.16-0.843-0.294-0.96-0.479c-0.2-0.317,0.11-1.075,0-1.44c-0.051-0.168-0.848-0.735-0.96-0.96   c-0.324-0.65-0.599-1.734-0.96-2.399c-0.036-0.065-0.418,0.05-0.48,0c-0.147-0.121,0.098-0.784,0-0.96   c-0.152-0.273-0.784-0.651-0.96-0.96c-0.289-0.508-0.223-1.026-0.48-1.44c-0.079-0.127-0.334-0.261-0.48-0.48   c-0.418-0.626-0.916-2.52-0.96-3.359c-0.025-0.476-0.424-0.312-0.48-0.48c-0.498-1.495-0.383-1.999-0.48-3.359   c-0.239-3.345-0.855-6.307-1.44-9.12c-0.253-1.222-0.792-2.268-0.96-3.36c-0.124-0.806,0.069-2.018,0-2.88   c-0.083-1.033-0.447-2.018-0.48-2.88c-0.033-0.872,0.468-1.925,0.48-2.88c0.014-1.107-0.555-1.994-0.48-2.88   c0.092-1.081,0.267-1.562,0.96-2.4c-0.591-1.78-1.34-2.811,0-4.32c-0.532-0.907-0.612-2.268-0.96-3.359   c1.668-1.395,0.8-4.345,0.96-6.721c0.132-1.949,0.71-4.245,0.96-6.24c0.302-2.409,0.5-5.199,0.96-6.72   c0.505-1.669,0.571-3.172,0.96-4.8c0.488-2.045,0.943-3.939,1.44-5.76c0.205-0.75,0.765-1.648,0.96-2.4   c0.406-1.57,0.283-2.807,0.96-3.36c0.041-0.033,0.484-1.458,0.48-1.44c0.154-0.617,0.374-1.017,0.48-1.44   c0.338-1.353,0.617-1.011,0.96-1.92c0.159-0.42-0.13-1.008,0-1.44c0.055-0.18,0.875-0.71,0.96-0.96c0.195-0.576-0.177-1.338,0-1.92   c0.053-0.173,0.853-0.728,0.96-0.96c0.261-0.565,0.528-1.648,0.96-2.4c0.167-0.291,0.348,0.051,0.48-0.48   c0.293-1.172,0.216-1.536,1.44-1.44c2.201,0.004,1.645,1.134,1.92,2.4c0.093,0.431,0.44,0.598,0.48,0.96   c0.171,1.551-0.668,3.023-0.48,4.32c0.233,1.611,0.83,2.212,1.44,3.36c0.142,1.646-0.189,3.11,0,4.8   c0.105,0.944,0.788,1.447,0.96,2.4c0.193,1.065-0.137,2.468,0,3.84c0.084,0.845,0.452,1.669,0.48,2.4   c0.039,1.037-0.472,2.371-0.48,3.36c-0.006,0.724,0.395,0.972,0.48,1.44c0.497,2.732-0.5,4.017-0.96,5.76   c-0.318,1.061,0.81,1.978,0.96,3.36c0.116,1.063-0.469,2.368-0.48,3.84c-0.013,1.724,0.636,3.181,0.48,4.32   c-0.184,1.341-0.577,2.447-1.44,3.359c0.682,2.129,0.444,4.324,0,5.76c-0.193,0.624-0.207,1.081-0.48,1.921   c-0.33,1.013-1.249,2.279-1.44,3.359c-0.297,1.676,0.226,3.414,0,5.28c-0.185,1.531-0.899,2.21-0.96,3.36   c-0.022,0.432-0.451,0.365-0.48,0.479c-0.389,1.539-0.211,3.459-0.48,5.28c-0.071,0.48-0.393,0.559-0.48,0.96   c-0.1,0.458,0.077,0.977,0,1.439c-0.738,4.43-1.172,10.939-0.48,14.4c0.189,0.946,0.079,2.224,0.96,2.88   c1.384-0.025,1.256-2.108,1.44-2.88c0.391-1.634,0.794-3.814,0.96-4.32c0.459-1.401,1.281-2.463,1.92-3.84   c0.183-0.395-0.186-1.047,0-1.439c0.088-0.187,0.856-0.253,0.96-0.48c0.302-0.663,0.477-1.661,0.48-2.4   c3.026-1.454,4.203-4.756,6.24-7.199c0.557-0.403,1.287-0.634,2.4-0.48c-0.35-1.31,0.954-0.966,0.96-1.92   c2.008,0.215,3.606-1.465,4.32-1.92c0.812-0.518,1.497-0.472,1.92-0.96c0.238-0.274,0.197-0.737,0.48-0.96   c1.412,1.072,1.833-0.62,2.4-0.96c0.218-0.131,0.709,0.062,0.96,0c0.735-0.184,1.596-0.556,1.92-0.96   c0.194-0.243,0.686,0.416,0.48,0.479c1.079-0.335,1.395-1.007,1.92-1.439c1.861,0.82,4.237,0.104,5.76-0.96   c1.19-0.831,1.609-1.867,2.4-2.88c1.095-0.825,1.53-2.311,2.88-2.881c0.005-1.274-0.182-2.741,0.48-3.359   c0.104-1.374-2.086-0.738-2.4-0.96c-0.248-0.175,0.099-1.105-0.48-0.96c0.055-1.705,1.588-1.932,3.36-1.92   c0.08-1.841-2.794-0.727-1.92-3.36c2.59-1.41,7.513-0.487,9.6-2.4c1.045-0.013,1.84,0.417,2.88,0.48   c0.492,0.03,0.56-0.455,0.96-0.48c0.617-0.038,0.651,0.559,1.44,0.48c0.626-0.062,1.064-0.46,1.44-0.48   c0.429-0.022,0.371-0.452,0.48-0.479c2.416-0.596,4.792-0.033,4.8,1.92c4.132,2.007,0.054,6.981-1.92,8.64   c0.541,1.13,0.92-0.575,1.44-0.96c0.79-0.583,1.18-1.182,2.4-0.96c0.383,1.537,1.418,2.422,1.44,4.32   c-0.645,0.315-0.894,1.026-0.96,1.92c-1.131-0.011-1.414,0.827-2.88,0.48c-0.985,0.935-1.576,2.264-2.4,3.359   c-0.649,0.151-0.917,0.684-1.92,0.48c0.087,1.047-0.393,1.526-1.44,1.439c0.487,1.983-0.935,3.394-1.44,4.8   c-0.613,1.706-0.643,3.486-1.92,4.801c-0.232,1.512,1.473,1.087,0.96,2.88c1.078,0.201,0.013,2.547,0.96,2.88   c0.373,0.107,0.947,0.014,0.96,0.479c2.333-0.418,6.295-0.813,7.2-1.92c0.115-0.14,0.786,0.083,0.96,0   c0.06-0.028-0.046-0.424,0-0.479c0.408-0.499,2.015-0.211,2.4-0.48c0.4-0.279,0.561-1.134,0.96-1.439   c0.968-0.741,2.045-1.103,2.88-1.92c1.28,0,2.56,0,3.84,0c0.708-0.341,1.302-0.935,1.92-1.44c1.461-1.195,2.309-2.191,3.36-3.36   c0.32-0.355,0.626-0.626,0.96-0.96c0.32-0.319,0.68-0.6,0.96-0.96c1.276-0.469,3.143-0.037,5.28,0c2.24,0.04,4.481-0.029,6.72,0   c1.291,0.331,0.928-0.992,1.44-1.439c0.915-0.206,1.206-1.034,2.4-0.96c0.066-0.895,0.316-1.604,0.96-1.92   c0.656-7.217-1.294-11.826-3.36-16.32c-0.597-1.322-2.452-1.389-3.36-2.4c-0.716-1.204-2.155-1.685-3.36-2.399   c-3.571,0.909-7.62,1.34-9.12,4.32c-2.927-0.382-4.152,3.008-6.72,1.439c-1.457-3.037,3.377-3.56,2.4-7.68   c-3.236,0.123-3.117,3.603-5.28,4.8c-1.36-0.39-2.84,0.077-3.84-0.48c-0.982-0.547-0.82-2.48-1.92-2.399   c0.154-3.023,1.432-4.869,0-7.2c0.756-2.283,1.47-4.61,2.4-6.72c0.256-1.491-1.271-1.917-1.44-2.4   c-0.412-1.176,0.299-2.608-0.48-3.84c1.314-1.145,2.9-0.952,4.8-0.48c1.4-0.68-0.606-4.767,1.44-4.8   c1.598-0.843,2.333,1.803,3.36,2.88c0.338,0.355,1.063,0.15,1.44,0.48c0.375,0.327,0.152,1.049,0.48,1.44   c0.291,0.347,0.654,0.561,0.96,0.96c0.297,0.389,0.382,0.862,0.96,0.96c2.238,0.318,3.083-0.756,4.8-0.96   c0.797,0.042,0.211-0.918,0.48-1.44c0.296-0.575,1.206-0.484,1.44-0.96c0.17-0.345-1.419-2.237,0.48-1.44   c0.397-1.357-0.676-1.244-0.48-2.4c0.649-0.151,0.917-0.684,1.92-0.48c-0.117-0.64-0.728-0.928-0.48-1.92   c0.315-1.259,0.19-0.483,0-1.92c-0.073-0.553-0.087-1.37,0-1.92c0.266-1.673,0.326-1.185,0.96-1.92   c0.125-1.405-1.085-1.475-0.96-2.88c2.062,0.165,1.299-1.749,0.96-2.88c0.71-0.25,1.21-0.71,1.92-0.96   c0.513-1.793-1.192-1.368-0.96-2.88c0.8,0,1.6,0,2.4,0c0.347-1.467-0.491-1.749-0.48-2.88c2.208,0.312,2.784-0.264,1.92-1.92   c0.916-0.901,0.869,0.285,2.4,0c0.357-1.478-1.317-0.923-0.96-2.4c0.63-0.616,1.77-0.616,2.4,0c-0.063-1.183-0.073-2.312,0.48-2.88   c0.927-0.513,2.547-0.333,1.92-2.4c2.721,0.379,3.778-1.564,4.8-2.4c0.314-0.257,0.604-0.728,0.96-0.96   c2.698,0.458,3.803-0.677,4.32-2.4c0.484-0.058,0.567,0.459,0.96,0.48c0.342,0.018,0.482,0.48,0.479,0.48   c1.561,0.185,1.548-1.561,2.88-0.96c0.155,0.07,0.26,0.937,0.48,0.96c1.039,0.106,0.686-1.095,1.92-0.96   c0.17,0.019,0.498,0.922,0.96,0.96c-0.202-0.017,0.332-0.443,0.479-0.48c0.665-0.167,1.041,0.38,1.44,0.48   c0.29,0.072,0.682-0.105,0.96,0c0.636,0.24,0.83,0.745,1.44,0.96c0.376,0.132,1.038-0.021,1.439,0   c0.486,0.025,0.298,0.415,0.48,0.48c0.529,0.189,1.244,0.157,1.92,0.48c0.241,0.115,0.688,0.791,0.96,0.96   c0.459,0.286,0.932,0.171,1.439,0.48c0.285,0.172,0.646,0.764,0.96,0.96c0.455,0.283,0.787,0.419,1.44,0.48   c1.771,0.151,1.384-1.255,1.92-1.92c0.526-0.654,1.195-1.073,1.44-1.44c0.586-0.88,0.091-2.431,1.439-2.88   c0.181-0.894-0.638-1.077-0.479-1.92c0.256-1.367,0.771-1.167,0.96-1.92c0.317-1.27,0.87-1.071,0.96-1.92   c0.063-0.604-0.685-0.672-0.48-1.44c1.861-0.066,1.043-2.174,2.4-2.4c-0.377-1.977,0.736-2.463,0.479-4.32   c1.965,0.524-0.064-2.944,2.4-1.92c0.348-1.468-0.828-1.412-0.48-2.88c1.307,0.375,1.127-1.356,1.44-1.92   c0.166-0.298,0.751-0.027,0.96-0.48c0.243-0.528-0.187-1.366,0-1.92c0.462-0.288,1.313,0.574,1.44,0.48   c0.774-0.576-0.306-1.067,0-2.4c0.017-0.076,0.895-0.35,0.96-0.48c0.256-0.512-0.196-1.378,0-1.92   c0.861,0.062,1.123-0.477,0.96-1.44c0.849-0.431,1.401-1.159,2.399-1.44c-0.148-1.909,1.109-2.411,0.96-4.32   c1.802,0.361,1.047-1.834,2.4-1.92c0.008-1.432,1.248-1.632,1.439-2.88c1.014-0.426,1.419-1.461,2.881-1.44   c0.43-1.009,0.746-2.134,1.439-2.88c1.04-0.468,1.641-0.138,2.4-0.48c0.167-0.076,0.283-0.846,0.479-0.96   c0.928-0.538,1.455-0.534,2.4-0.96c0.172-0.078,0.273-0.85,0.479-0.96c0.802-0.428,2.611-0.946,2.88-0.96   c1.305-0.068,2.561-1.72,3.841-1.92c1.183-0.063,2.312-0.073,2.88,0.48c1.041-1.05,2.159-0.66,2.88-0.48   c0.664,0.166,1.041-0.38,1.439-0.48c0.665-0.166,1.041,0.38,1.44,0.48c0.617,0.154,1.017,0.375,1.44,0.48   c1.253,0.313,1.281,0.438,1.92,0.96c0.88,0.721,1.664,1.004,2.399,1.44c0.124,0.073,0.254,0.335,0.48,0.48   c0.343,0.218,0.68,0.215,0.96,0.48c0.442,0.419,0.768,1.497,1.439,2.4c0.235,0.315,0.683,0.596,0.96,0.96   c0.983,1.285,0.959,1.846,1.44,3.84c0.249,1.033,0.786,2.001,0.96,2.88c0.121,0.615-0.082,1.298,0,1.92   c0.077,0.581,0.473,1.108,0.48,1.44c0.015,0.726-0.396,0.972-0.48,1.44c-0.166,0.915,0.011,2.667,0,2.88   c-0.025,0.476-0.424,0.312-0.48,0.48c-0.848,2.543,0.298,5.591-1.92,6.24c0.23,1.51-0.684,1.876-0.96,2.88   c-0.854,0.426-1.22,1.34-2.88,0.96c-0.383,1.057-0.963,1.917-2.399,1.92c-0.007-0.954-1.31-0.61-0.96-1.92   c0.828-0.291-0.037-2.277,0.96-2.4c-1.365-1.835-2.375-4.025-3.841-5.76c-2.675-0.044-3.885-1.554-5.76-2.4   c-1.031,0.848-2.921,0.73-3.84,0.96c-1.035,0.259-0.667,1.217-1.92,0.96c-1.009,1.016-1.871-0.564-2.88-0.96   c-1.033,0.407-1.698,1.182-1.44,2.88c-0.983-0.253-1.021,0.67-1.439,0.96c-0.656,0.454-1.396,0.453-1.92,0.96   c-0.146,0.141,0.087,0.766,0,0.96c-0.059,0.13-0.843,0.34-0.96,0.48c-0.705,0.833-1.892,1.846-1.92,2.4   c-0.03,0.56-0.272,0.208-0.48,0.48c-1.235,1.614-2.223,3.166-3.84,4.32c-0.08,1.36-0.88,2-0.96,3.36   c-1.302,0.298-1.195,2.005-2.88,1.92c0.461,2.541-0.904,3.256-2.4,3.84c-0.638,1.014,0.236,1.419-0.479,2.88   c-2.142-0.062-1.718,2.443-2.881,3.36c-1.003,0.276-1.369,1.19-2.88,0.96c-0.638,2.082-1.158,4.281-3.359,4.8   c-0.629,1.931-0.709,4.411-2.88,4.8c0.314,2.367-0.909,4.573-1.44,6.72c-1.076,4.353-1.95,10.679-2.88,14.4   c-0.072,0.291,0.021,0.66,0,0.96c-0.132,1.849-0.321,2.272-0.48,3.36c-0.234,1.612-0.224,2.24-0.479,2.88   c-0.388,0.969-0.422,1.292-0.48,2.4c-0.022,0.426-0.454,0.375-0.479,0.48c-0.384,1.584-0.377,2.807-0.48,4.32   c-0.738,0.542-1.181,1.379-1.92,1.92c0.092,1.94-1.187,3.812-0.96,5.76c0.278,2.388,2.293,2.763,2.4,4.8   c0.021,0.397,0.467,0.412,0.479,0.48c0.417,2.127-0.688,6.109-0.96,7.2c-0.496,1.986-0.284,2.839-0.479,4.319   c-0.088,0.668-0.403,1.003-0.48,1.44c-0.749,4.264-1.148,8.54-1.92,12.96c0.121,1.722-1.441,1.759-1.439,3.359   c1.035,1.318,2.204-0.478,3.359,0.48c1.462,1.938,3.651,3.744,4.8,5.28c0.783,1.046,1.372,1.667,1.921,2.399   c0.368,0.492,0.576,0.975,0.96,1.44c1.527,1.855,3.226,3.468,4.8,5.28c0.73,0.841,1.641,1.494,2.399,2.399   c0.152,0.181-0.1,0.739,0,0.96c0.064,0.142,0.841,0.324,0.96,0.48c0.367,0.479,0.5,0.583,0.96,0.96c0.162,0.132-0.136,0.794,0,0.96   c0.677,0.827,1.665,1.559,2.4,2.399c2.534,2.902,4.415,5.798,6.72,8.641c1.508-0.335,0.865-2.456,0.96-3.36   c0.198-1.882,0.805-4.283,0.96-5.76c0.069-0.653,0.436-1.029,0.48-1.44c0.157-1.434-0.167-3.135,0-4.8   c0.383-3.811,0.988-10.283,0.479-13.92c-0.339-2.426-1.696-4.21-1.92-6.24c1.851-0.379,2.837,0.8,3.36,1.44   c0.133,0.162,0.796-0.139,0.96,0c-0.011-0.009,0.426,1.175,0.96,1.92c0.796,1.11,1.868,1.897,1.92,2.88   c0.047,0.883,0.924,1.229,0.96,1.92c0.023,0.447,0.443,0.348,0.48,0.48c0.198,0.713-0.06,1.658,0,2.399   c0.059,0.737,0.471,1.828,0.479,2.4c0.039,2.329-0.855,6.108-0.96,7.68c-0.103,1.548,0.184,2.78,0,4.32   c-0.169,1.419-0.814,3.222-0.96,3.84c-0.143,0.607,0.128,1.309,0,1.92c-0.189,0.912-0.773,1.6-0.96,2.4   c-0.727,3.113-0.372,6.142-0.479,9.6c0.466,1.934,2.097,2.703,3.359,3.84c0.823-1.909,1.071-4.838,1.44-5.76   c0.047-0.117-0.007-0.353,0-0.479c0.024-0.462,0.434-0.33,0.479-0.48c0.261-0.857,0.269-1.685,0.48-2.4   c0.402-1.362,1.083-2.77,0.96-4.319c1.122-0.724,1.708-2.084,1.92-3.36c0.236-1.423-0.369-2.783-0.48-4.32   c-0.27-3.728-0.046-8.936,0.48-11.04c0.084-0.334,0.454-0.399,0.479-0.479c0.367-1.143,0.154-2.166,0.48-2.88   c0.088-0.193,0.772-0.67,0.96-0.96c0.113-0.176,0.472-0.808,0.48-0.96c0.028-0.55,0.324-0.22,0.479-0.48   c0.581-0.974,0.89-1.875,1.44-2.88c-0.089-1.778-1.244-3.216-1.44-5.28c-0.187-1.962,0.836-3.895,0.48-5.76   c-0.307-1.601-0.959-2.014-1.92-3.36c-1.78-0.34-2.061,0.82-3.841,0.48c-0.944-1.683-4.133-3.972-3.84-6.72   c0.258-2.41,1.253-1.957,2.4-3.36c0.42-1.499,1.305-2.535,1.92-3.84c0.663-0.382,1.245-0.508,1.92-0.96   c0.358-0.24,1.19-1.301,1.44-1.44c0.935-0.521,2.083-0.569,2.88-0.96c0.414-0.204,1.021-0.188,1.439-0.48   c0.396-0.276,0.544-1.173,0.96-1.44c1.032-0.663,1.383-0.784,1.92-1.44c0.122-0.149,0.784,0.101,0.96,0   c0.278-0.16,0.647-0.777,0.96-0.96c0.551-0.32,0.992-0.555,1.92-0.48c0.142,0.979,1.299,0.941,1.44,1.92   c-0.148,1.132-1.667,0.893-1.44,2.4c0.4,1.09,2.949-0.957,3.841,0.48c0.589,2.189-1.684,1.517-1.92,2.88   c5.25,4.669,6.966,12.875,8.64,21.12c0.61,0.719,1.504,1.109,1.92,1.44c0.098,0.077,0.384-0.079,0.48,0   c0.156,0.129-0.157,0.83,0,0.96c0.184,0.151,0.736-0.101,0.96,0c0.131,0.06,0.338,0.842,0.479,0.96   c0.72,0.6,1.409,0.857,1.44,1.439c0.029,0.557,0.302,0.213,0.479,0.48c0.604,0.91,0.738,1.033,0.96,1.92   c0.081,0.323,0.46,0.415,0.48,0.48c0.451,1.482,0.298,1.984,0.479,3.359c0.083,0.624,0.446,1.057,0.48,1.44   c0.061,0.685-0.49,1.041-0.48,1.439c-0.003-0.118,0.429,0.275,0.48,0.48c0.438,1.754-0.508,2.413-0.48,3.84   c0.056,2.828,0.641,5.916,1.44,8.64c0.906,1.636,2.845,2.116,3.84,3.36c0.151,0.189-0.103,0.733,0,0.96   c0.159,0.354,0.928,0.346,0.96,0.96c0.026,0.502,0.399,0.278,0.48,0.48c0.269,0.678,0.292,1.816,0.479,2.88   c0.153,0.867,0.455,2.49,0.48,3.359c0.045,1.592-0.409,2.213-0.48,2.881c-0.184,1.722,0.133,2.858-0.479,3.359   c-0.13,0.106,0.063,0.791,0,0.96c-0.481,1.275-1.281,2.751-1.44,3.84c-0.321,2.205,0.243,4.162,0,6.24   C218.163,192.634,224.179,191.739,229.006,192.032z M130.605,111.872c-1.407-1.56-2.33-2.943-3.359-4.8   c-0.54-0.974-1.126-2.143-1.44-2.4c-0.041-0.034-0.484-1.458-0.479-1.44c-0.329-1.316-0.725-1.546-1.44-2.4   c-1.492-1.78-2.888-3.458-3.359-5.76c-0.32,0-0.641,0-0.96,0c-0.79,0.076-1.084,1.022-1.44,1.44c-0.198,0.232-0.746,0.25-0.96,0.48   c-0.419,0.45-0.479,1.046-0.96,1.44c-0.157,0.129,0.12,0.787,0,0.96c-0.255,0.365-1.082,0.667-1.44,0.96   c-0.147,0.121,0.098,0.784,0,0.96c-0.152,0.274-0.792,0.644-0.96,0.96c-0.254,0.479-0.304,1.06-0.479,1.44   c-0.13,0.28-0.851,0.606-0.48,1.44c0.793,0.007,0.269,1.332,0.96,1.44c0.716,1.204,2.155,1.685,3.36,2.4   c1.106-0.147,0.533,1.387,1.439,1.44c-1.246,2.258-0.831,5.047-0.96,7.681c-0.327,6.722-1.525,13.334-0.96,20.64   c1.706,0.677,4.394,0.667,6.721,0.479c1.149-0.092,2.432,0.265,3.359,0c0.077-0.021,0.734-0.828,0.96-0.96   c0.472-0.272,0.774-0.426,1.44-0.479C131.27,130.894,131.632,120.376,130.605,111.872z M82.126,105.631c0.8,0,1.6,0,2.4,0   c-0.021-0.661,0.226-1.054,0.48-1.44C83.99,102.764,81.857,103.258,82.126,105.631z M180.046,119.072   c1.8,0.359,2.339-0.541,2.4-1.92C181.432,116.194,179.474,117,180.046,119.072z M66.286,120.992c0.836,0.036,1.493-0.107,1.92-0.48   c-0.059-1.222-0.699-1.861-1.92-1.92C65.67,119.222,65.67,120.361,66.286,120.992z M73.966,156.992   c-0.033,0.041-1.458,0.484-1.44,0.479c-1.255,0.314-1.665,0.886-2.4,1.44c-0.718,0.541-1.683,1.402-2.4,1.439   c-0.953,0.051-1.013,1.12-1.44,1.44c-4.234,3.176-6.943-1.377-8.64-5.28c-2.6,0.12-3.22,2.221-4.8,3.36   c-3.19,0.649-4.558,3.121-7.68,3.84c-0.244,1.517-1.413,2.107-1.44,3.84c-1.832,1.048-2.943,2.817-3.36,5.28   c1.92-0.404,3.294-0.667,3.84,0c0.121,0.147,0.784-0.098,0.96,0c0.25,0.139,0.708,0.754,0.96,0.96   c0.892,0.729,1.157,0.792,1.44,1.92c0.357,1.423-0.896,4.154-0.96,5.28c-0.061,1.074-1.583,2.484-0.48,2.88   c0.599-1.161,1.967-1.553,3.36-1.92c1.132-1.175,0.893,0.717,2.4,0.479c2.464-2.53,5.484-4.977,7.68-7.2   c0.88-0.891,1.459-2.122,2.4-2.88c0.354-0.285,1.109-0.254,1.44-0.479c0.03-0.021,0.415-0.417,0.48-0.48   c0.13-0.124,0.953-0.818,0.96-0.96c0.047-0.882,1.044-1.116,1.44-1.439c0.38-0.312,0.171-1.511,0.48-1.92   c0.866,0.07,1.054-0.552,1.44-0.96c0.462-0.489,1-0.96,1.44-1.44c0.406-0.443,1.047-0.951,1.44-1.44   c0.432-0.538,0.492-1.406,0.96-1.92c1.734-1.903,3.908-3.483,5.76-5.279c0.105-0.604,0.748-0.981-0.48-0.96   C76.758,156.43,74.583,156.237,73.966,156.992z" fill-rule="evenodd" style="fill:#000000"/>
    <path clip-rule="evenodd" d="M129.166,137.792c-0.666,0.054-0.969,0.207-1.44,0.479   c-0.226,0.132-0.883,0.938-0.96,0.96c-0.928,0.265-2.21-0.092-3.359,0c-2.327,0.188-5.015,0.197-6.721-0.479   c-0.565-7.306,0.633-13.918,0.96-20.64c0.129-2.634-0.286-5.423,0.96-7.681c-0.906-0.053-0.333-1.587-1.439-1.44   c-1.205-0.715-2.645-1.196-3.36-2.4c-0.691-0.108-0.167-1.433-0.96-1.44c-0.37-0.833,0.351-1.16,0.48-1.44   c0.176-0.38,0.226-0.961,0.479-1.44c0.168-0.316,0.808-0.686,0.96-0.96c0.098-0.176-0.147-0.839,0-0.96   c0.358-0.293,1.186-0.595,1.44-0.96c0.12-0.173-0.157-0.832,0-0.96c0.481-0.394,0.541-0.99,0.96-1.44   c0.214-0.229,0.762-0.248,0.96-0.48c0.356-0.417,0.65-1.364,1.44-1.44c0.319,0,0.64,0,0.96,0c0.472,2.302,1.867,3.98,3.359,5.76   c0.716,0.854,1.111,1.084,1.44,2.4c-0.005-0.018,0.438,1.406,0.479,1.44c0.314,0.257,0.9,1.426,1.44,2.4   c1.029,1.857,1.952,3.24,3.359,4.8C131.632,120.376,131.27,130.894,129.166,137.792z" fill="#FFFFFF" fill-rule="evenodd"/>
    <path clip-rule="evenodd" d="M85.006,104.191c-0.254,0.386-0.5,0.779-0.48,1.44   c-0.8,0-1.6,0-2.4,0C81.857,103.258,83.99,102.764,85.006,104.191z" fill="#FFFFFF" fill-rule="evenodd"/>
    <path clip-rule="evenodd" d="M182.446,117.152c-0.062,1.379-0.601,2.279-2.4,1.92   C179.474,117,181.432,116.194,182.446,117.152z" fill="#FFFFFF" fill-rule="evenodd"/>
    <path clip-rule="evenodd" d="M66.286,118.591c1.221,0.059,1.861,0.698,1.92,1.92   c-0.427,0.373-1.084,0.517-1.92,0.48C65.67,120.361,65.67,119.222,66.286,118.591z" fill="#FFFFFF" fill-rule="evenodd"/>
    <path clip-rule="evenodd" d="M77.326,155.072c1.228-0.021,0.585,0.356,0.48,0.96   c-1.852,1.796-4.026,3.376-5.76,5.279c-0.468,0.514-0.528,1.382-0.96,1.92c-0.393,0.489-1.034,0.997-1.44,1.44   c-0.439,0.48-0.978,0.951-1.44,1.44c-0.386,0.408-0.574,1.03-1.44,0.96c-0.309,0.409-0.1,1.608-0.48,1.92   c-0.396,0.323-1.394,0.558-1.44,1.439c-0.007,0.142-0.83,0.836-0.96,0.96c-0.065,0.063-0.45,0.46-0.48,0.48   c-0.331,0.226-1.085,0.194-1.44,0.479c-0.94,0.758-1.52,1.989-2.4,2.88c-2.196,2.224-5.216,4.67-7.68,7.2   c-1.507,0.237-1.268-1.654-2.4-0.479c-1.393,0.367-2.761,0.759-3.36,1.92c-1.103-0.396,0.419-1.806,0.48-2.88   c0.063-1.126,1.317-3.857,0.96-5.28c-0.283-1.128-0.548-1.19-1.44-1.92c-0.252-0.206-0.71-0.821-0.96-0.96   c-0.176-0.098-0.839,0.147-0.96,0c-0.546-0.667-1.92-0.404-3.84,0c0.417-2.463,1.528-4.232,3.36-5.28   c0.027-1.732,1.196-2.323,1.44-3.84c3.122-0.719,4.49-3.19,7.68-3.84c1.581-1.14,2.2-3.24,4.8-3.36   c1.697,3.903,4.406,8.456,8.64,5.28c0.427-0.32,0.487-1.39,1.44-1.44c0.717-0.037,1.682-0.898,2.4-1.439   c0.735-0.555,1.145-1.126,2.4-1.44c-0.018,0.005,1.407-0.438,1.44-0.479C74.583,156.237,76.758,156.43,77.326,155.072z" fill="#FFFFFF" fill-rule="evenodd"/>
    <path id="maze" v:res3="47x20" v:res2="37x15" v:res1="27x11" v:start="20x279" v:end="222x279" v:border="#000000" v:wall="#000000" d="m 20.627803,237.97927 c -1.345292,-32.287 4.035874,-28.25112 10.313901,-33.18386 6.278027,-4.93273 38.116592,-19.28252 42.600897,-28.25113 4.484305,-8.9686 16.591928,-24.21524 24.663677,-26.00896 8.071752,-1.79373 32.286992,-2.24215 36.771302,3.58744 4.4843,5.8296 18.83408,30.94171 29.59641,34.97758 10.76233,4.03588 35.87444,11.21077 41.70404,11.6592 5.8296,0.44843 15.24664,3.13901 15.24664,3.13901 l 0.89685,32.73543 -201.793717,1.34529 z" style="visibility:hidden;fill:none;stroke:#000000;stroke-width:1px;stroke-linecap:butt;stroke-linejoin:miter;stroke-opacity:1" transform="translate(0,-3.0297565e-6)"/>
  </g>
</svg>