<svg  xmlns:v="http://www.vectomatic.org" style="overflow:visible" version="1.1" viewBox="0 0 276.318 160.123" xmlns="http://www.w3.org/2000/svg" xmlns:svg="http://www.w3.org/2000/svg">
  <g id="g3">
    <path d="m 198.326,129.575 c -25.423,3.657 -52.225,7.534 -80.99,4.999 -8.949,12.43 -12.249,28.197 -28.997,23.997 C 75.644,155.387 81.506,144.234 76.34,130.574 74.223,124.977 65.362,121.792 59.342,116.576 50.205,108.659 45.367,99.192 36.344,96.579 c -9.935,-2.878 -20.184,0.82 -29.996,-2 -0.17,-10.143 -12.77,-31.266 -2,-36.995 7.453,-3.965 10.854,6.194 17.998,5.999 C 31.324,63.338 42.499,44.628 49.343,40.586 57.136,35.983 66.885,36.337 67.341,27.587 67.879,17.282 51.801,16.571 53.344,6.59 c 1.685,-10.898 24.391,-5.857 30.996,-2 9.808,5.727 9.494,13.983 20.998,15.998 16.505,2.891 41.039,-4.952 59.993,-5 30.968,-0.078 69.697,4.414 86.989,23.997 6.609,7.486 4.314,10.983 10.998,21.997 3.292,5.424 13.149,8.196 12.999,17.998 -0.132,8.541 -8.725,8.324 -12.999,14.998 -4.904,7.659 -6.402,24.527 -10.998,35.995 -4.812,12.007 -10.156,25.05 -18.998,27.997 -22.104,7.368 -23.242,-13.022 -34.996,-28.995 z m 67.991,-46.994 c 1.666,0 3.333,0 4.999,0 -0.826,-2.826 1.409,-2.591 1,-5 -1.695,-1.637 -2.483,-4.182 -5.999,-3.999 0,2.999 0,5.999 0,8.999 z" style="fill:#ffaaaa;fill-opacity:1;fill-rule:evenodd"/>
    <path id="maze" v:res3="41x20" v:res2="31x15" v:res1="21x10" v:start="50x70" v:end="250x75" v:border="#de8787" v:wall="#ffaaaa" d="M 51.225791,65.813267 C 74.633602,45.119405 66.491755,48.172598 78.704526,41.726968 90.917297,35.281339 104.48704,31.210415 123.48469,30.192684 c 18.99764,-1.01773 56.31444,-8.141847 71.58041,-4.070923 15.26596,4.070923 31.8889,8.481091 38.67377,14.92672 6.78488,6.445629 14.58748,14.926721 14.92672,25.443274 0.33925,10.516553 4.41017,37.656045 -5.4279,44.780165 -9.83806,7.12411 -42.06621,11.87352 -59.70688,13.2305 -17.64067,1.35697 -63.7778,6.10638 -73.27662,-0.33925 C 100.75536,117.71755 62.760075,100.75536 59.028395,93.97049 55.296714,87.185617 46.815623,81.079231 51.225791,65.813267 z" style="fill:#de8787;stroke:none;visibility:hidden;"/>
  </g>
</svg>