<svg width="100%" height="100%" xmlns:v="http://www.vectomatic.org" style="overflow:visible" version="1.1" viewBox="0 0 300.143 240.397" xmlns="http://www.w3.org/2000/svg" xmlns:svg="http://www.w3.org/2000/svg">
  <g>
    <path d="m 49.708,102.932 c 0,0.009 -10e-4,0.017 -10e-4,0.026 -10e-4,-0.01 0,-0.018 10e-4,-0.026 z M 46.684,67.966 c 0,0 -10e-4,0 -0.002,0 10e-4,0 0.002,0 0.002,0 z" style="fill:#221e1f"/>
    <line fill="none" stroke="#221E1F" stroke-linecap="round" stroke-linejoin="round" stroke-width="0" style="fill:none;stroke:#221e1f;stroke-width:0;stroke-linecap:round;stroke-linejoin:round" x1="46.683998" x2="46.681999" y1="67.966003" y2="67.966003"/>
    <path d="m 49.706,102.958 c 0,-0.009 10e-4,-0.017 10e-4,-0.026" style="fill:none;stroke:#221e1f;stroke-width:0;stroke-linecap:round;stroke-linejoin:round"/>
  </g>
  <g>
    <path d="m 297.643,48.24 c -1.162,-7.312 2.811,-11.605 -3.135,-17.026 -7.397,-6.746 5.662,-5.724 3.613,-13.454 -3.357,0.205 -5.162,4.034 -8.639,3.6 1.922,-1.047 4.295,-1.844 4.799,-4.32 -7.314,0.799 -15.301,2.748 -19.68,-4.8 4.149,0.379 8.181,-0.188 12.271,-0.778 3.576,-0.516 7.963,-3.407 1.333,-3.691 -3.885,-0.167 -17.949,1.537 -20.804,-1.77 0.111,-2.35 9.595,0.212 7.68,-5.04 -6.63,3.494 -16.453,-0.125 -23.52,-0.96 -2.094,3.654 -7.729,0.044 -10.561,1.44 -5.99,-2.684 -9.076,2.784 -13.199,3.12 -2.134,1.161 -4.002,2.653 -5.605,4.476 -3.007,3.271 -4.594,2.841 -8.582,4.457 -3.82,1.548 -9.482,2.219 -14.373,3.547 -0.21,1.166 -7.586,4.177 -8.881,4.56 -2.188,-1.65 -6.521,1.453 -8.16,3.12 1.421,0.358 2.861,0.598 4.32,0.72 -2.998,0.962 -6.49,-2.513 -8.16,1.2 1.11,0.287 2.23,0.527 3.361,0.72 -3.463,1.215 -19.441,7.36 -19.441,10.56 4.381,-2.629 10.123,-3.267 15.121,-3.36 0.087,1.438 -7.659,2.199 -9.402,2.718 -4.352,1.295 -4.011,1.748 -4.998,4.481 -1.371,0.211 -2.651,-0.029 -3.84,-0.72 0.047,0.78 0.447,1.26 1.199,1.44 -2.393,1.33 -1.778,0.309 -3.6,2.16 -3.367,0.871 -6.502,-1.176 -9.6,4.08 1.063,0.175 2.103,0.095 3.12,-0.24 -0.579,0.302 -0.899,0.782 -0.96,1.44 1.478,0.442 3.653,-2.38 5.76,-1.68 -0.08,1.281 8.924,-0.969 11.28,-0.72 -2.367,-0.097 -14.574,3.557 -14.639,3.12 0.824,0.438 1.704,0.678 2.64,0.72 -4.347,2.105 -11.691,-1.899 -4.32,2.16 -3.293,1.436 -16.143,1.886 -17.04,6.24 0.688,0.224 1.329,0.543 1.92,0.96 -7.658,1.659 -10.065,1.47 -17.734,0.454 -3.841,-0.509 -7.435,-1.67 -11.06,-2.283 C 95.647,57.079 84.41,57.251 73.481,58.8 62.003,60.43 52.846,61.797 41.317,60.087 35.319,59.198 29.141,60.477 23.56,62.279 18.761,63.83 6.899,70.615 6.312,76.5 6.233,77.296 5.385,79.757 4.453,79.893 1.309,80.352 0,99.716 0,102.264 c 0.002,11.718 1.193,23.372 2.006,35.001 -0.064,1.418 -0.168,2.842 -0.026,4.258 0.706,6.783 2.686,12.66 3.635,19.705 0.926,6.875 2.333,11.672 2.143,19.074 -0.186,7.223 -2.552,18.102 5.485,16.258 0.002,-1.48 0.242,-2.922 0.72,-4.32 -0.322,9.625 2.604,-5.184 2.88,-7.439 0.459,2.721 -0.661,12.902 4.08,9.119 -0.054,0.85 0.346,1.168 1.2,0.961 -0.159,-1.971 0.082,-3.891 0.72,-5.76 1.062,0.131 -0.369,0.789 2.038,0.947 3.568,0.236 -0.164,-3.26 2.042,-4.309 2.912,7.422 5.605,-6.33 7.92,-7.68 0.204,1.287 0.444,2.566 0.72,3.84 3.914,-0.799 2.41,-17.211 3.12,-20.639 4.542,3.926 8.977,8.688 13.121,13.135 3.387,3.635 4.44,5.096 5.104,9.76 0.491,3.443 2.216,3.779 5.055,3.744 -0.011,1.115 -3.126,4.801 -3.12,4.801 -0.479,-0.547 -0.719,-1.186 -0.72,-1.92 -2.154,-0.299 -4.154,0.102 -6,1.199 -0.899,3.053 -0.482,4.893 -0.391,7.957 -0.782,6.795 2.818,12.58 9.287,6.268 3.075,-3 7.175,-6.236 7.361,-10.707 0.119,-2.275 2.656,-6.24 4.382,-6.637 1.102,5.525 6.725,12.506 9.063,17.377 2.596,4.902 3.936,10.158 7.15,14.809 3.648,5.279 5.441,10.848 8.747,6.215 6.532,3.102 3.178,12.719 10.8,12.719 7.718,0 11.974,2.162 16.079,-3.6 -13.425,-11.414 -28.75,-19.877 -34.722,-37.758 -2.87,-8.592 -3.786,-13.787 2.545,-20.156 3.234,-3.234 6.37,-6.859 8.764,-10.832 7.061,-11.721 19.929,-13.754 23.653,-29.414 15.772,5.758 27.183,9.873 44.35,10.09 5.32,0.068 9.873,-2.584 11.811,3.111 1.227,3.574 2.312,19.531 4.531,20.908 1.738,1.078 0.508,14.979 0.508,18.211 4.068,9.271 4.818,16.83 4.933,26.748 0.037,3.197 1.067,5.828 1.067,9.012 4.486,5.594 0.605,0.639 5.041,-0.24 0.279,1.906 2.767,2.09 1.785,5.211 -1.131,3.594 -0.296,6.299 3.975,7.27 -0.593,0.285 -0.832,0.766 -0.721,1.439 5.121,0 10.24,0 15.361,0 -0.379,-1.748 -0.059,-3.348 0.959,-4.799 -1.789,-1.992 -3.469,-4.072 -5.039,-6.24 -5.068,-2.098 -8.865,-6.805 -10.488,-11.594 -3.291,-9.711 -3.882,-19.773 -3.395,-30.432 0.243,-5.307 -0.369,-10.336 -0.105,-15.57 0.139,-2.77 2.428,-11.377 1.988,-12.965 -2.143,-9.725 24.445,-6.848 30.225,-8.141 9.549,-2.137 22.231,-7.883 27.717,4.402 1.434,3.139 1.834,6.018 2.945,9.332 1.518,4.525 1.982,9.582 1.65,14.43 -0.359,5.248 1.056,5.311 4.422,6.857 -1.451,2.885 -4.467,3.439 -7.199,6 0.296,6.77 1.253,10.248 5.039,15.84 4.139,0.254 5.767,-4.375 7.336,-7.805 1.033,-2.225 1.626,-4.625 1.494,-7.09 -0.385,-8.865 2.275,-14.871 -1.666,-23.871 -3.52,-8.037 -5.225,-37.025 -17.723,-34.676 -1.723,-1.723 -12.762,-2.613 -15.361,-2.879 -2.916,-3.834 -5.414,0.092 -4.496,-6.236 0.481,-3.31 1.47,-6.517 1.857,-9.844 0.082,-1.289 1.705,-3.129 1.918,-4.298 1.096,-7.032 -0.719,-13.02 -3.498,-18.781 -1.115,-2.371 -0.711,-10.231 0.451,-11.394 3.408,-6.725 0.079,-12.74 6.891,-18.685 3.479,-3.037 4.91,-5.466 8.143,-1.116 2.29,3.082 4.07,6.506 5.752,9.944 3.447,7.048 -0.07,11.674 0.023,18.409 2.574,3.292 9.108,6.682 12.7,7.54 4.03,0.962 15.855,-5.256 12.038,-11.395 -2.354,-3.813 -0.117,-13.268 0.502,-17.665 0.281,-2.03 0.604,-4.054 0.92,-6.08 3.813,1.024 4.582,-9.652 5.279,-11.28 1.894,2.926 0.373,15.72 3.119,17.04 1.941,-0.527 -0.34,-4.143 1.201,-5.04 0,5.273 -0.731,6.442 2.879,5.52 -0.014,0.869 0.387,1.429 1.201,1.68 1.471,-1.53 -0.032,-3.538 -0.48,-5.04 2.642,-2.893 2.42,4.732 3.316,-3.232 0.472,-4.174 -0.184,-8.945 -2.354,-12.606 M 47.562,141.839 c -1.921,0.15 -5.92,4.219 -9.36,3.84 4.626,-12.363 2.466,-28.209 0.89,-40.646 -0.523,-4.124 -4.83,-11.157106 -2.496,-14.862106 1.628,-2.585 4.546315,-3.24879 4.275315,-6.26879 2.999,-0.441 4.02916,1.996104 6.93616,0.621104 -3.8,6.729 -3.318844,2.829949 -4.688844,10.602949 C 42.003631,101.45216 42.28,102.808 43.36,108.872 c 1.631,9.188 8.824,18.908 15.002,25.289 -3.588,2.6 -6.634,5.936 -10.8,7.678 m 34.709,11.514 c -0.548,8.227 -9.277,17.598 -14.549,22.566 -4.468,-6.471 -12.896,-9.549 -12.48,-18.479 3.42,0.069 27.294,-8.462 27.029,-4.087" style="fill:#3d0034;fill-opacity:1"/>
    <path id="maze" v:res3="43x27" v:res2="33x21" v:res1="23x14" v:start="25x168" v:end="200x28" v:border="#541f5b" v:wall="#3d0034" d="m 15.788786,169.09281 13.242208,-3.56521 c 0,0 -2.546578,-52.45952 1.527947,-68.75762 4.074526,-16.298102 14.260839,-15.788786 14.260839,-15.788786 0,0 5.602473,-1.018632 9.167683,3.56521 3.565209,4.583841 -1.527947,26.993726 10.186313,36.670726 11.714261,9.677 19.376804,31.37265 41.254564,19.354 13.5804,-7.46046 3.44646,-14.3209 23.18775,-11.74781 19.74129,2.57309 59.68081,10.50518 64.41455,10.21987 9.87121,-0.59496 32.59621,-8.14906 35.14279,-24.44716 2.54658,-16.298103 -10.69563,-26.484417 -6.62111,-41.763887 4.07453,-15.279471 -1.01863,-35.142782 -9.16768,-40.235939 -8.14905,-5.093157 -14.77015,-7.639736 -22.40989,-0.509316 -7.63973,7.13042 -9.16768,19.353996 -25.9751,28.012363 -16.80742,8.658366 -40.03261,9.141455 -57.55268,7.639735 -17.82604,-1.527947 -35.65209,-1.018631 -35.65209,-1.018631 0,0 -30.558941,-6.621104 -44.310464,0.509315 -13.751524,7.13042 -18.3353651,20.881943 -18.8446808,27.503047 -0.5093157,6.621103 -2.0372627,41.763883 1e-7,49.403623 2.0372627,7.63973 7.6397357,25.9751 8.1490507,24.95647 z" style="fill:#541f5b;fill-opacity:1;stroke:none;visibility:hidden;"/>
  </g>
</svg>