<svg xmlns:v="http://www.vectomatic.org" enable-background="new 0 0 157.643 107.967" version="1.1" viewBox="0 0 157.643 107.967" xmlns="http://www.w3.org/2000/svg" xmlns:svg="http://www.w3.org/2000/svg">
  <path d="M30.837,0.251c0.527,0.874-0.216,1.611,0.48,2.4,1.138-0.062,0.626-1.774,1.92-1.68,1.405-0.045,1.154,1.565,2.16,1.92,2.404-1.622,3.357,0.876,4.56,2.399-0.17,0.87-1.053,1.027-0.72,2.4,1.386,0.837,1.279-1.064,2.88-0.72,0.541,0.888-1.281,1.692,0.48,2.16-0.025,0.934-1.508,0.412-1.681,1.199,0.02,0.861,1.569,0.191,1.92,0.721-0.339,1.073-1.402,1.252-0.479,2.399-1.329,1.368-1.251,2.693-0.24,4.561-1.177,3.327-1.087,7.432-2.88,10.56,0.678,0.602,1.426,1.134,1.92,1.92,0.118,0.758-0.432,0.848-0.24,1.68,0.405,2.235,2.806,2.476,4.561,3.36,4.054-0.906,7.097-2.822,10.08-4.8,3.609-7.27,9.487-12.272,15.6-17.04,4.495-1.098,10.975-1.438,15.36,0,1.614,1.504,3.789,2.45,4.56,4.8,4.55,0.17,6.985,2.454,8.64,5.521,1.771-0.011,2.414,1.105,3.842,1.439,1.67,2.827,4.387,4.774,6.238,7.681,1.861,2.918,2.312,5.965,4.801,8.399,2.324,2.276,4.451,3.778,7.439,5.76,5.07,0.77,7.126,4.555,12.72,4.801,0.83,0.93,2.54,0.979,3.36,1.92h1.92c3.757,2.163,6.417,5.422,8.64,9.12,2.8,0.081,2.986,2.772,6,2.64,0.116,0.756-0.735,0.543-0.479,1.439,0.93,0.21,1.265,2.359-0.72,0.24-2.164,0.328,0.521,2.42-0.722,3.119-0.962-0.235-1.093-1.764-0.72-2.639-2.453,1.365-3.777-1.779-6-2.16-0.755,0.17-1.438,1.266-2.399,0.479-0.082-0.882,0.875-0.727,1.439-0.96-0.059-0.741-1.194-0.405-0.96-1.438-0.989-0.189-0.451,1.147-1.44,0.959,0.007-0.564-0.412-0.707-0.238-1.439-2.514-2.207-5.083-4.355-6.96-7.2-6.453-3.626-14.724-5.437-20.4-9.839-1.06,6.752,2.188,13.324,1.68,21.12,2.69,2.11,4.775,4.825,6.96,7.44,3.113,1.045,5.496,1.397,9.12,1.199,0.218,0.424,0.537,0.743,0.96,0.96-0.296,8.675,2.89,15.144,6.24,20.88,0.859,0.021,1.387,0.373,2.16,0.479,0.459,0.819,0.854,1.705,1.68,2.159,1.605-0.952,3.636-2.146,6-1.68,0.51,0.102,0.877,0.821,1.682,1.2,1.021,0.479,2.501,0.554,3.119,0.96,5.13,3.368,3.554,7.922-4.319,6.721-0.776-1.063-2.874-0.808-3.602-1.92-5.88-0.105-9.657-1.271-11.04-6.48-0.16-0.609-0.632-1.671-0.96-2.398-2.82-6.277-4.843-11.369-10.56-14.16-4.346-0.694-7.608-2.473-12.24-2.881-2.307-2.014-4.835-3.805-6.96-6-0.885-2.875-2.985-4.533-5.52-5.761-0.391-0.729-1.205-1.034-1.44-1.92-1.077,0.521-1.942,0.183-2.64,0.722,0.219,0.42,0.446,0.834,1.199,0.719-0.693,3.899,0.292,8.18,1.681,11.761,0.455,1.174,1.361,1.918,1.2,2.88-0.255,1.518-6.109,3.744-7.92,4.32-0.434,0.138-1.301-0.053-1.44,0-4.141,1.545-7.471,4.912-11.52,6,0.701,1.414,2.328,1.096,3.84,1.68,1.193,0.462,2.474,1.729,3.84,1.92,2.682,0.374,5.829-1.247,7.92,0.96,5.356-1.409,11.026,0.259,13.68,3.601-0.573,1.5-1.01,2.086-0.96,3.84-3.192,1.521-9.277,0.594-10.8-2.399-8.82,1.414-13.747-4.449-21.359-5.76-1.148,1.012-1.482,2.837-3.84,2.641-1.497,0.983-0.853,4.107-2.64,4.8-5.357-0.836-8.701,2.846-13.92,1.2-0.673-1.327-0.643-1.78-0.24-3.36,2.302-0.996,4.852-3.028,7.92-3.601,0.795-0.147,1.854,0.246,2.641,0,2.206-0.69,2.41-3.285,4.079-4.319-2.903-1.233-4.26-4.66-6.239-7.199-3.387-4.342-8.062-7.881-10.561-12.48-5.218,3.823-11.193,6.887-15.84,11.28-0.564-0.005-0.707,0.414-1.439,0.239-5.773,4.707-10.473,10.488-15.601,15.841-0.861-0.142-1.161,0.278-1.68,0.479-1.081,1.56-2.293,2.986-3.12,4.801-2.436,0.638-6.264-1.058-8.88-1.201-1.298-0.07-2.799,0.38-3.36,0.24-2.36-0.582-2.418-3.08-1.439-5.521,3.948-1.949,8.331-0.381,12.479-0.479,0.678-1.002,1.771-1.59,1.68-3.359,3.82-2.02,6.719-4.962,9.12-8.399,2.33-2.149,5.26-3.7,6.24-7.2,1.389-1.49,2.655-3.104,4.08-4.561,1.406-0.114,1.738-1.302,3.12-1.439,2.694-2.267,5.81-4.109,7.92-6.959-2.139-3.623-5.862-5.658-6.48-10.801-3.538,1.176-4.015-2.353-6.479-2.16-0.259-0.939-0.515-1.886-1.44-2.16-1.142,0.458-0.938,2.263-2.399,2.399-0.506-0.454-1.537-0.383-1.44-1.439-0.502,0.138-0.685,0.595-1.439,0.479-1.716-1.078-0.577-2.362-1.2-4.08,1.186-0.563,2.309-1.682,1.68-3.359-1.885,0.596-1.389,3.571-3.359,4.08,0.575-1.519-0.573-2.363-1.44-3.12-0.566-2.985,0.538-5.894,2.16-7.44-1.372-1.8-2.643-2.311-2.88-5.04-1.953,0.746,0.799,1.751,0.239,3.36-0.309,0.331-1.042,0.237-1.68,0.24-0.371-1.364-2.228-3.071-0.96-4.561-0.212-1.247-1.45-1.547-1.439-2.64,0.01-1.116,0.862-0.951,1.68-2.16,0.634-0.938,0.408-1.864,1.2-2.399,1.54-1.042,3.795-0.12,4.8-1.44-1.122-2.122-4.476-1.464-6-1.44-0.475-2.313,2.215-1.465,2.88-2.64-1.616-0.262-4.579-0.329-3.84-2.16,1.564,0.754,3.848,1.098,4.8-0.479-3.185-0.386-7.742-2.999-9.84-0.24-1.416-0.104-3.028-0.012-3.84-0.72-0.22-1.979,1.937-1.583,2.399-2.88-1.336-0.901-4.464,0.63-6.239-0.721-0.172-2.331,2.688-1.632,2.88-3.6,4.619-0.042,5.632-4.899,10.319-4.08,0.94-3.009,5.326-5.671,8.4-3.6,2.583,0.199,1.609-4.212,4.553-2.882zm-8.399,20.881c0.898,0.019,1.941,0.182,1.68-0.961-0.785,0.096-1.552,0.209-1.68,0.961zm-3.841,11.279c1.812-0.588,2.023-2.775,3.119-4.08-1.663-0.186-2.925,2.007-3.119,4.08zm4.8,11.04c0.835,0.279,1.532-1.609,0.479-1.68-0.487,0.232-0.517,0.922-0.479,1.68zm4.081-1.68h-0.96c-0.381,1.117,1.239,0.833,0.96,0zm-4.321,6c0.284-0.784,0.625-3.432-0.24-3.84-0.402,0.877-1.016,3.41,0.24,3.84zm4.801,1.92c0.369-0.365,0.427-1.646-0.479-1.44-0.371,0.366-0.429,1.646,0.479,1.44zm1.199,4.321c-0.011-0.852,0.288-2.894,0-3.841-0.24,0.001-0.48,0.001-0.72,0-0.265,1.154-1.113,3.84,0.72,3.841zm-2.159-0.721v-0.96h-0.72c0.1,0.459,0.086,1.033,0.72,0.96zm33.839,17.28c2.826,4.533,5.246,9.474,7.44,14.64,2.774-0.03,3.603,4.935,5.52,5.28,1.047,0.189,5.612-2.708,6.24-3.12,2.066-1.354,4.578-2.56,6-3.601,0.853-0.623,2.979-2.625,3.36-3.84,0.84-2.679-1.096-5.559-1.92-6.959-1.422-2.414-3.248-4.875-4.32-6.961-4.435,4.498-14.641,4.053-22.32,4.561z" id="path2886" style="fill:#de9d62;fill-opacity:1"/>
  <path id="maze" v:start='12x12' v:end='112x57' v:res1='20x11' v:res2='28x15' v:res3='37x22' v:border="#c17530" v:wall="#de9d62" d="m 53.721683,34.830843 c 5.501618,-4.854369 12.621359,-16.18123 17.475728,-17.475728 4.854369,-1.294499 9.708738,-2.588997 13.915858,-0.970874 4.147054,1.59502 12.33118,8.847137 14.239482,10.194174 1.908299,1.347037 9.223299,8.576052 11.003239,14.07767 1.77993,5.501618 4.37198,17.775372 1.45631,22.330097 -3.53882,5.528179 -10.19418,1.132687 -14.563109,0.64725 -4.368932,-0.485437 -8.619495,-1.234531 -14.401295,-0.647249 -5.781799,0.587282 -9.546925,4.530744 -19.7411,4.530744 -10.194175,0 -16.990291,-4.854369 -22.491909,-11.97411 C 35.113269,48.423076 25.203189,40.339846 24.271845,35.154468 23.340502,29.969089 27.346279,25.445729 26.699029,21.562235 26.433011,19.966128 24.757281,17.355114 21.197411,16.384241 19.47842,15.915426 15.105433,16.897674 13.908644,15.386457 L 12.135922,13.147994 C 8.0881123,8.0367178 27.993528,5.2191922 31.877023,6.3518782 c 3.883495,1.1326861 6.472492,3.7216828 6.472492,6.6343038 0,2.912622 -2.427185,16.990292 -0.970874,18.608415 1.45631,1.618123 4.905899,5.663429 7.928802,5.66343 3.074434,1e-6 8.576052,-2.265372 8.41424,-2.427184 z" style="fill:none;stroke:none;stroke-width:1px;stroke-linecap:butt;stroke-linejoin:miter;stroke-opacity:1;fill-opacity:1" transform="matrix(1.000019,0,0,1.000019,0,-0.00252819)"/>
</svg>