<svg xmlns:v="http://www.vectomatic.org" version="1.0" viewBox="0 0 400 380" xmlns="http://www.w3.org/2000/svg" xmlns:svg="http://www.w3.org/2000/svg">
  <path d="M151.35,307.2h113c0-16.06-1.15-19.25-27.75-19.25,4.25-12.75,21.52-43.59,31.12-43.59,8.5,0,18.63,0.47,18.63,19.84,0,22,37.02,57.48,46,43,13.38-21.56-23-14.98-23-67,0-71.15,41.52-61.02,41.52-101,0-20-5.52-22.7-5.52-37,0-18.893,16.65-17.796,13.41-33.465-2.24-10.823-3.99-19.503-5.29-32.591-0.93-9.287-1.23-19.185-10.87-18.787-11.33,0.468-15.63,20.417-33.25,21.848-17.58,1.427-32.57-14.967-39.38-12.625-6.74,2.321-4.62,20.625-0.62,33.625,6.29,20.432,20,46.995-5,50.995s-68,8-99,49-29.86,89.12-42,104c-40.759,49.96-82.526,29.45-82.526,71,0,18.61,31.525,32,36.525,26s-42.485-23.87,10.646-45c45.395-18.04,49.445-21.72,63.355-9z" fill="#000" fill-rule="evenodd" id="path7093" style="fill:#999999"/>
  <path id="maze" v:start='277x43' v:end='219x284' v:res1='20x22' v:res2='30x33' v:res3='41x44' v:border="#808080" v:wall="#999999" d="m 225.42373,286.61017 c 0,0 -57.9661,11.27119 -69.23729,1.61017 -11.27119,-9.66102 -17.71186,-25.76271 -14.49152,-41.8644 3.22034,-16.1017 18.42354,-56.87846 28.98304,-76.48305 4.86223,-9.02711 38.57708,-37.94227 57.36229,-40.05297 17.91314,-2.01272 50.48741,-10.68963 56.15466,-18.71822 9.66102,-13.686449 7.24577,-22.542378 2.41526,-33.813565 -4.83051,-11.271186 -15.29661,-33.813559 -9.66102,-33.813559 5.6356,0 24.95763,9.661017 36.22882,7.245763 11.27118,-2.415254 24.95762,-24.957627 28.17796,-20.932204 3.22034,4.025424 7.24577,16.101695 4.83051,33.81356 -2.41525,17.711864 -15.29661,28.983051 -11.27119,42.669495 4.02543,13.68644 5.6356,41.8644 -8.05084,56.35593 -13.68644,14.49152 -26.88536,40.88936 -32.20339,57.9661 -3.21162,10.31284 -30.59323,10.4661 -37.0339,12.88136 -7.11156,2.66684 -32.20339,55.55084 -32.20339,53.13559 z" style="fill:none;stroke:none;stroke-width:1px;stroke-linecap:butt;stroke-linejoin:miter;stroke-opacity:1;fill-opacity:1"/>
</svg>
