<svg xmlns:v="http://www.vectomatic.org" viewBox="0 0 533.66406 376.65619" version="1.0" xmlns="http://www.w3.org/2000/svg" xmlns:svg="http://www.w3.org/2000/svg">
  <g transform="translate(-102.777,-318.736)">
    <path d="m 369.49446,695.16141 c -5.10306,-0.41622 -14.91444,-1.81464 -18.19057,-2.59272 -3.99164,-0.94801 -7.06493,-2.23408 -7.39515,-3.09464 -0.23899,-0.6228 1.27155,-3.18491 6.2281,-10.56381 2.67643,-3.98445 3.59157,-5.75449 4.60401,-8.90497 3.13368,-9.75131 5.27341,-20.16106 7.88029,-38.33762 1.80618,-12.59361 3.1785,-20.84127 4.51241,-27.11968 0.92532,-4.35526 1.01073,-5.48475 0.82642,-10.92882 -0.13331,-3.93758 -0.58405,-8.20556 -1.28243,-12.14314 -2.66093,-15.0025 -2.97829,-19.83353 -2.07408,-31.57216 0.36012,-4.67511 0.74569,-8.95556 0.85683,-9.51212 0.11113,-0.55657 0.64989,-4.47273 1.19722,-8.70259 0.54733,-4.22986 1.11914,-8.40152 1.27069,-9.27035 l 0.27554,-1.5797 -1.75175,0.28012 c -0.96346,0.15406 -3.91648,0.057 -6.56226,-0.21566 -3.85849,-0.39765 -5.42681,-0.39321 -7.92457,0.0224 -7.02941,1.16979 -16.68732,4.11825 -33.2695,10.15683 -12.58607,4.58336 -23.88253,8.30569 -30.35784,10.00331 -7.51359,1.96982 -13.82519,2.21126 -24.1045,0.9221 -8.22648,-1.03172 -12.11852,-0.93999 -15.58393,0.36726 -2.79107,1.05288 -4.29345,2.5784 -6.61784,6.71978 -4.73954,8.44445 -4.78895,8.48677 -11.57811,9.91599 -6.37779,1.34262 -7.2436,1.95303 -9.46459,6.67259 -1.85161,3.93463 -2.15013,4.78593 -3.05388,8.70866 -1.43647,6.23499 -1.76005,11.17343 -1.53601,23.44189 0.38027,20.82311 3.19693,34.87069 10.92303,54.47658 4.00534,10.16404 3.75723,9.79722 11.44262,16.91775 3.20212,2.96678 7.06962,8.59626 7.35198,10.70145 0.39988,2.98131 -2.96563,7.2997 -7.15375,9.17922 -4.95103,2.22189 -9.9994,2.19429 -27.35811,-0.14953 -4.91364,-0.66345 -11.9263,-1.49705 -15.58369,-1.85243 -3.65739,-0.35539 -7.26128,-0.73724 -8.00864,-0.84858 l -1.35884,-0.20241 0.2374,-2.09859 c 0.70466,-6.22917 1.14758,-16.07168 0.9318,-20.70653 -0.30172,-6.48092 -1.30207,-11.35861 -4.10954,-20.03809 -3.18583,-9.8492 -4.50889,-14.64025 -5.47978,-19.8434 -0.47773,-2.56018 -1.29687,-6.11205 -1.82032,-7.89304 -2.58592,-8.79838 -3.69704,-12.14314 -4.03394,-12.14314 -0.63459,0 -3.73856,6.25103 -5.72824,11.53598 -2.84077,7.54562 -4.79528,12.53241 -5.71124,14.57177 -6.97431,15.52809 -11.01557,27.72368 -11.6716,35.22227 -0.22948,2.62303 -0.12005,3.50568 0.79302,6.39604 1.4305,4.52836 1.39114,5.82047 -0.22435,7.36432 -2.02472,1.93493 -4.91917,2.57746 -10.23404,2.27183 -11.36096,-0.65331 -15.67799,-1.02315 -19.24499,-1.64872 -4.85054,-0.85067 -17.09245,-3.81749 -17.53685,-4.25005 -0.35008,-0.34074 1.4206,-4.09633 4.46934,-9.47938 1.97112,-3.48036 12.4994,-24.41128 14.89002,-29.60236 5.12447,-11.12745 10.57104,-24.75203 13.82791,-34.59045 3.79594,-11.46685 8.23775,-28.60771 9.44469,-36.44691 0.25707,-1.66968 0.6252,-3.76437 0.81806,-4.65487 0.30448,-1.40587 1.41422,-10.62118 2.8515,-23.67912 0.23279,-2.11493 0.77756,-6.08059 1.2106,-8.81257 1.35469,-8.54653 0.89942,-12.96105 -1.97606,-19.16098 -0.68245,-1.47145 -1.44266,-3.93043 -1.68936,-5.46442 -0.9196,-5.71802 -2.15845,-10.27733 -2.79256,-10.27733 -0.13982,0 -0.70452,-0.72858 -1.25487,-1.61908 -0.91224,-1.47604 -1.61909,-2.05844 -1.61909,-1.33405 0,0.15677 -0.45126,3.57203 -1.00281,7.58946 -0.95703,6.97103 -2.41879,19.33251 -4.26213,36.04319 -1.26812,11.49606 -3.59192,30.48416 -4.01246,32.78647 -0.20332,1.11312 -0.58383,3.48103 -0.84558,5.26203 -1.76126,11.98432 -3.47026,18.73801 -7.25241,28.66052 -3.21918,8.44555 -4.29611,11.58525 -5.07559,14.7975 l -0.55353,2.28113 -0.0273,-4.65487 c -0.0703,-11.97574 1.73592,-23.53069 5.76129,-36.85724 3.90253,-12.91984 5.90589,-26.90993 7.73474,-54.01391 1.23289,-18.27176 1.71776,-28.6691 2.24626,-48.16778 0.55608,-20.51628 1.4628,-28.1394 5.10336,-42.90576 1.96753,-7.98044 2.805,-10.84268 5.32944,-18.2147 12.70268,-37.0951 33.79527,-61.71351 62.42969,-72.86536 13.42155,-5.2271 27.34555,-7.41419 44.32245,-6.96188 13.82818,0.36842 22.30649,1.57048 43.51291,6.16928 15.18855,3.29376 19.94379,3.70732 35.21511,3.06261 28.31559,-1.19541 47.50462,-5.32135 64.5046,-13.8695 7.86956,-3.95706 9.74972,-4.66184 17.05681,-6.39366 8.45388,-2.00363 21.64854,-3.18557 27.72683,-2.48369 8.38529,0.96828 28.18967,8.4005 37.21967,13.96787 2.8996,1.78773 6.45341,3.17555 9.32903,3.64314 0.77918,0.1267 5.68512,0.50985 10.90208,0.85144 10.78341,0.70606 12.42695,1.01799 19.9508,3.78656 15.21045,5.59703 22.7224,10.41396 32.91122,21.10393 6.64857,6.97558 14.96156,18.61147 21.16853,29.63006 2.60818,4.63007 8.56953,16.21938 8.56953,16.65984 0,0.0971 0.80416,1.87994 1.78702,3.96182 3.35264,7.10142 7.12305,16.42765 12.57609,31.10731 1.94342,5.23167 3.94461,10.60501 4.4471,11.94075 0.50252,1.33575 1.70639,4.60043 2.67533,7.25485 2.10554,5.76831 2.82563,6.91671 5.39346,8.60131 3.21493,2.10913 8.28907,3.27131 19.06254,4.36607 8.59758,0.87365 11.53598,1.42655 11.53598,2.17065 0,1.28452 -2.05899,4.06318 -3.7358,5.04152 -2.50023,1.45877 -4.97306,2.20659 -10.33875,3.12659 -7.83139,1.34276 -9.47982,1.67893 -12.33678,2.51587 -1.50271,0.44022 -2.7322,0.91926 -2.73224,1.06455 0,0.14528 1.2624,6.73037 2.80539,14.63353 3.86184,19.78061 6.11111,32.49854 9.55693,54.03697 4.85187,30.32709 8.17189,68.92551 9.31334,108.27631 0.25962,8.95045 0.90203,14.68808 1.98974,17.77092 0.3415,0.96794 0.62091,1.79921 0.62091,1.84727 0,0.0481 -0.77412,0.10203 -1.72027,0.11993 -0.94616,0.0179 -3.78457,0.77533 -6.30759,1.68319 -4.36704,1.57139 -6.50593,1.95046 -7.92749,1.40496 -0.83318,-0.31971 -0.83023,-2.30303 0.009,-6.23064 1.12575,-5.26698 0.48026,-15.06348 -2.28028,-34.60795 -2.10748,-14.92085 -7.20295,-38.5523 -11.59609,-53.77968 -0.77947,-2.70169 -1.56525,-5.45859 -1.74618,-6.12647 -1.12656,-4.15795 -9.55131,-35.35369 -10.76732,-39.86997 -9.36042,-34.76461 -16.5422,-52.8207 -26.48407,-66.58487 -5.21507,-7.2201 -8.68764,-9.42734 -19.42497,-12.34685 -5.3737,-1.46112 -8.12833,-2.52883 -16.18599,-6.27368 -8.89732,-4.13511 -12.76588,-5.54178 -15.87691,-5.77307 -2.69825,-0.20061 -2.72577,-0.19226 -3.17709,0.96441 -0.35001,0.89707 -0.30553,2.24274 0.19251,5.82164 0.7778,5.58914 0.82549,8.91752 0.14081,9.82742 -0.80164,1.06535 -13.9345,3.55457 -20.15218,3.81966 -4.23723,0.18066 -5.94017,0.0585 -10.32166,-0.74041 -7.18453,-1.31 -19.44734,-1.40404 -22.76206,-0.17456 -2.9497,1.09409 -4.71054,2.67212 -5.98299,5.36188 -1.50202,3.17499 -2.10277,7.03916 -2.63031,16.91872 -0.62931,11.78524 -0.18431,14.36342 5.51415,31.94761 1.881,5.80436 4.15736,13.5588 5.05857,17.2321 3.59627,14.65818 5.43815,19.0708 19.26106,46.14393 6.47508,12.68187 8.97678,18.32114 11.49215,25.90536 2.76411,8.33413 3.65221,13.09042 3.89236,20.84572 0.11851,3.8272 0.42867,7.18858 0.75823,8.21755 0.80414,2.51064 2.60396,4.57427 7.0213,8.0504 5.10223,4.01511 9.07174,7.91068 15.521,15.232 l 5.28478,5.99936 -1.98006,2.03697 c -2.60001,2.67467 -7.93781,7.11678 -10.4803,8.72163 -8.09538,5.10995 -14.90409,6.22796 -28.85146,4.7375 -3.27738,-0.35023 -8.63623,-0.76593 -11.90856,-0.92378 -3.27233,-0.15784 -6.04861,-0.38592 -6.16952,-0.50683 -0.12092,-0.12091 -0.40155,-3.23326 -0.62363,-6.91634 -0.91492,-15.17332 -3.19422,-25.94691 -8.11864,-38.3745 -2.73446,-6.90085 -4.33698,-10.03826 -8.01276,-15.68736 -3.47282,-5.33719 -6.25109,-10.17328 -9.59069,-16.69435 -3.05724,-5.96972 -7.28112,-12.77705 -11.17646,-18.01232 -2.65225,-3.56458 -5.83772,-7.00264 -6.16369,-6.65242 -0.0901,0.0968 -1.35552,3.36365 -2.81194,7.25958 -2.60316,6.96346 -3.68643,10.15246 -9.6247,28.33399 -2.46935,7.56054 -3.72247,10.61979 -7.37813,18.01232 -6.54886,13.24319 -8.34301,18.40028 -7.57829,21.78303 0.35977,1.59143 2.10546,4.42623 3.2427,5.26578 0.6772,0.49993 8.52935,10.08821 10.04841,12.27014 0.79667,1.14431 3.32216,7.63943 3.32216,8.54401 0,0.35447 -2.12604,0.74878 -10.72644,1.9894 -3.91996,0.56546 -22.01408,1.03911 -26.31013,0.68872 z" style="fill:#8c8c8c;fill-opacity:1"/>
    <path id="maze" v:res3="44x38" v:res2="33x29" v:res1="22x19" v:start="85x59" v:end="333x423" v:border="#828282" v:wall="#8c8c8c" d="m 131.7223,28.826978 c 60.37273,-3.430268 41.84928,9.604752 75.46591,9.604752 33.61663,0 76.15196,-6.174483 100.84989,-14.407128 24.69793,-8.232644 39.10506,-8.918697 50.76797,-4.116322 11.66291,4.802376 32.93058,5.48843 48.70981,16.465289 15.77923,10.976858 32.93058,32.930576 34.98874,51.454025 2.05816,18.523446 -15.77924,36.360846 -37.73295,41.849276 -21.95372,5.48843 -54.19824,6.17448 -63.803,21.26766 -9.60475,15.09318 -17.83739,26.07004 -12.34896,50.76797 5.48843,24.69794 11.66291,39.10506 11.66291,39.10506 l -59.68667,2.74422 c 0,0 8.23265,-40.47717 -13.03502,-50.76797 -7.46197,-3.61064 -22.63977,-6.17449 -45.27954,-4.80238 -22.63977,1.37211 -79.58222,11.66291 -91.93119,25.38399 -12.34897,13.72107 -28.1282,34.30268 -28.1282,34.30268 l -47.337706,-0.68605 c 0,0 11.662912,-30.87242 6.860536,-52.82613 C 56.942455,172.2122 45.965596,142.71188 50.767972,117.32791 55.275095,93.504548 70.663528,56.955179 92.617245,43.920159 114.57096,30.885139 131.7223,28.826978 131.7223,28.826978 z" style="visibility:hidden;fill:#828282;fill-opacity:1;stroke:none" transform="translate(102.777,318.736)"/>
  </g>
</svg>