<svg xmlns:v="http://www.vectomatic.org" version="1.0" viewBox="0 40 425 375" xmlns="http://www.w3.org/2000/svg" xmlns:svg="http://www.w3.org/2000/svg">
  <path d="M42,47.715l7,21c-9.796,0.081-14.32,5.669-23,8.348-3.902,1.204-8.094-0.026-11.981,1.085-3.138,0.897-4.9426,3.284-4.7713,6.57,0.7533,14.454,24.498,14.482,34.752,15.992,0.865,10.58,6.131,19,5.996,30-0.112,9.14-5.993,17.98-2.528,27,4.043,10.53,19.858,13.54,21.188,25,1.648,14.21-7.645,28.52-10.188,42-1.986,10.53-1.031,30.49,12.532,32l-3-7,6,2-3-30h1c0.766,9.63,3.274,23.19,14,26l-1-4,6-1-3-7,3,1c0.935-6.13-6.736-5.41-8.486-11.01-3.208-10.28,3.436-18.31,7.486-26.99h1c2.797,5.35,7.41,7.2,11.58,11.21,10.9,10.51,21.61,21.66,37.42,23.79,1.96,23.95,12.94,46.34,9,71-14.12,0-39.4-5.64-47,10l49,1c-10.46,13.33-36.44,5.09-51,4.09-7.497-0.51-18.53,0.57-21,8.91,21.72-1.26,43.22,3.75,65,4.01,6.4,0.07,18.29,2.72,23.72-1.61,4.53-3.6,3.28-11.31,3.28-16.4,25.74-0.07,15.88-21.68,20-39,13.44,4.01,27.38,2.54,41,0,2.77,9.61,9.49,18.45,14.55,27,8.38,14.17,17.79,30.59,31.45,40.37,8.81,6.3,20.88,9.03,31,12.57,34.4,12.03,73.09,13.53,109,18.06-0.7-9.04-24.11-10.46-32-11.57-22.21-3.13-44.14-10.11-65-18.05-9.76-3.72-21.27-6.87-28.83-14.48-23.86-24-31.7-62.26-33.13-94.9-0.78-17.89,5.15-38.43-5.03-55-20.36-33.11-65.01-54.74-103.01-58.82-19.08-2.05-38.55,2.95-57-4.29-14.887-5.85-11.438-27.568-24-33.885,3.059-10.999-4.53-14.953-9.31-24-1.875-3.549-4.03-13.468-8.69-7l-10-4m31,173l-1,1,1-1m101,61l-3,19h-1c-2.35-7.4-2.28-13.61,4-19z" id="path7717" style="stroke:none;stroke-opacity:1;fill:#808000"/>
  <path id="maze" v:start='55x157' v:end='240x177' v:res1='20x15' v:res2='30x20' v:res3='42x31' v:border="#565614" v:wall="#808000" d="m 114.53488,130.23255 c 29.65117,1.74419 54.65117,-1.16279 72.67442,8.13954 18.02326,9.30232 54.06977,30.23256 56.97675,43.02326 2.90697,12.7907 8.72093,58.72093 3.48837,66.86046 -5.23256,8.13954 -13.95349,21.51163 -34.88372,19.18605 -20.93023,-2.32558 -52.90698,-0.58139 -56.97675,-18.02326 -4.06976,-17.44186 -2.32558,-23.8372 -18.02325,-31.97674 C 122.09302,209.30233 95.930233,190.69767 85.465116,179.65116 75,168.60465 50.581395,163.37209 54.651163,151.74419 c 4.069767,-11.62791 8.72093,-33.13954 18.023256,-31.97675 9.302325,1.16279 12.20929,8.72093 41.860461,10.46511 z" style="fill:none;stroke:none;stroke-width:1px;stroke-linecap:butt;stroke-linejoin:miter;stroke-opacity:1;fill-opacity:1"/>
</svg>