<svg xmlns:v="http://www.vectomatic.org" version="1.0" xmlns="http://www.w3.org/2000/svg" xmlns:svg="http://www.w3.org/2000/svg" viewBox="0 0 230.16086 185.35818">
  <path d="M 53.778336,83.434307 C 52.876936,78.940507 48.782236,73.859907 45.764936,70.321407 C 43.055736,66.983007 35.752736,62.184907 27.698236,53.857407 C 25.156436,51.451907 23.592436,49.813207 21.578936,46.426807 C 19.318636,42.625407 19.154636,35.607207 20.996136,31.565507 C 22.894236,27.399507 26.110036,24.623407 27.989636,23.260707 L 33.817636,19.035407 L 30.903636,14.373107 C 30.373736,13.525307 29.918836,6.3894068 34.254736,2.8629068 C 38.894336,-0.7545932 44.606736,-0.019193204 48.241836,0.2404068 C 54.805536,0.7092068 57.450136,1.7599068 61.354636,3.1543068 C 67.649036,5.4024068 72.719136,8.1081068 78.838536,11.022007 C 82.286736,9.0793068 85.937136,7.7612068 89.183136,8.2537068 C 92.979236,8.8297068 95.299336,10.829707 97.342236,12.916107 C 99.864436,15.492007 100.41174,17.831607 101.13044,20.492407 C 102.20884,24.485207 103.59394,28.617407 106.66694,32.002707 C 109.81034,35.465407 112.95144,37.696307 117.15724,39.724707 C 123.92744,42.990007 130.79244,45.210607 137.84644,47.009607 C 145.26514,48.901607 151.72054,51.354807 158.38994,54.294607 C 166.48464,57.862607 174.22264,63.036407 181.70184,67.844507 C 180.19624,64.784807 178.19474,61.889907 175.43674,59.539707 C 172.60964,57.130507 169.82234,55.843207 165.82064,54.003107 C 163.16874,52.783607 160.38124,51.866307 157.66154,50.797807 C 158.97284,47.349607 161.28654,43.898607 165.09214,41.764407 C 168.47434,39.867507 172.97054,38.349707 177.18514,39.579007 C 183.46084,41.409407 188.53684,46.203107 192.33774,49.632207 C 197.47294,54.265107 202.14694,59.054907 205.74204,64.202007 C 213.17154,74.838707 218.13054,84.385907 222.35174,93.050407 C 224.58984,97.644307 227.43064,102.10531 229.05384,106.16321 C 230.34464,109.39021 230.90934,112.91581 228.47104,115.77941 C 226.73274,117.82091 224.28844,119.23751 221.33184,119.13041 C 217.58634,118.99471 213.93574,116.65041 210.98724,112.42831 C 205.72804,104.89741 206.56764,103.58921 195.83454,87.805207 C 195.64024,89.699307 196.00934,91.745207 196.56304,93.487507 C 198.00054,98.010207 199.99174,101.62961 202.24524,105.28911 C 205.67404,110.85721 208.08414,116.52081 210.11304,122.48161 C 211.42204,125.89931 212.61214,129.47311 212.58984,132.53471 C 212.38244,136.31531 212.58994,138.79971 211.27864,142.58791 C 215.60104,142.53941 219.24144,143.46011 221.76894,145.79331 C 224.92364,148.70531 226.89174,151.57311 226.86834,155.26371 C 226.84314,159.24651 225.54904,161.80711 222.93464,164.29701 C 220.44964,166.66371 218.03184,168.53281 214.33824,169.39651 C 208.27004,170.81541 202.64014,171.63321 194.81464,171.43621 C 189.13874,171.29331 183.45354,171.17531 176.89374,170.99921 C 168.98074,170.78671 162.80104,171.02141 153.58194,172.01901 C 149.78524,172.42981 145.98334,172.84011 142.21744,173.47601 L 130.99864,175.37011 C 131.97004,177.65271 131.91414,179.54961 131.14434,181.63521 C 130.40854,183.62911 128.68844,184.57901 126.62764,185.13191 C 124.70604,185.64751 122.17264,185.31121 120.36264,183.82061 C 118.87014,182.59141 118.33884,179.81431 118.61424,177.55561 C 118.82454,175.83181 120.43464,173.61231 122.11104,172.60191 C 123.98004,171.47541 126.53034,169.83281 129.39594,169.10511 C 132.64974,168.27871 135.46674,167.16241 139.01204,166.04541 L 106.81264,168.37661 C 107.58974,171.92191 107.56274,174.29081 104.91854,176.38991 C 102.85194,178.03041 99.110336,178.31951 96.322336,175.80721 C 94.690936,174.33711 94.682736,171.47631 95.593836,169.39651 C 96.916736,166.37681 101.76764,164.68561 105.64704,164.00551 L 128.08474,160.07181 L 93.699736,157.88621 C 93.311236,160.80021 92.564136,162.67291 90.348736,163.56851 C 87.999036,164.51841 86.074736,165.06551 83.937936,162.98571 C 82.432336,161.52021 81.846636,158.78121 82.918036,156.42931 C 83.837836,154.41021 85.513136,153.25261 88.600336,152.49541 C 90.661236,151.98991 92.485736,151.86411 95.011036,151.91271 C 106.18124,151.71841 117.35154,151.81551 128.52174,151.62121 C 127.30754,149.19291 126.53054,146.32751 126.62764,143.46211 C 119.73124,143.80201 114.09374,144.32021 107.24974,142.29651 C 99.475336,139.99771 95.023736,137.33061 88.891736,130.93201 C 83.853536,125.67471 80.505036,121.68851 76.361636,114.32241 C 74.385736,110.80961 73.350536,109.32001 70.970736,103.54061 C 70.727936,106.30891 70.673336,108.53081 71.553536,110.97131 C 72.810336,114.45591 74.923536,116.84321 74.904636,119.13041 C 74.863036,124.80791 73.354636,128.29791 70.970736,132.68041 C 68.546636,137.13691 65.112836,139.63991 59.460636,141.71371 L 39.208436,149.14431 C 39.548436,152.49541 39.487536,154.57201 37.751536,156.28361 C 36.039436,157.97161 33.931036,159.25011 30.903636,158.32341 C 29.171436,157.79311 27.989236,156.46131 27.552536,154.24381 C 27.212236,153.20741 27.438236,150.97671 29.009536,149.43571 C 32.489236,146.02311 35.954536,143.89911 40.519736,141.56801 L 22.016036,145.93901 C 22.744536,147.78451 21.905936,149.99691 20.121936,151.76701 C 18.661236,153.21641 15.641536,153.70231 13.128436,151.76691 C 11.416236,150.44831 11.020536,147.06771 11.962836,145.35621 C 13.400236,142.74531 15.993736,142.10241 19.102036,142.73361 L 31.923536,131.07771 L 10.797236,136.61431 C 10.457236,138.26551 10.041536,139.42711 8.903136,140.25671 C 7.176136,141.51541 4.844636,142.02351 2.638136,140.83951 C 0.86223602,139.88671 -0.13856398,137.84521 0.015536021,135.30301 C 0.15283602,133.03721 1.505936,131.54741 3.949436,130.64061 C 6.216836,129.79911 7.397536,130.30061 9.340236,131.66051 L 26.095636,125.68691 C 21.676036,124.22991 14.391136,123.06431 11.671436,123.21001 C 11.137136,124.37561 10.632336,126.00211 9.340236,126.12401 C 8.058336,126.24501 6.508036,126.28161 4.969236,124.22991 C 3.739736,122.59051 3.803536,121.20421 4.823536,119.13051 C 6.124536,116.67121 9.855136,114.10741 13.128436,114.90521 C 23.405136,117.40991 33.206436,119.82551 43.433736,122.48151 C 45.736436,123.07951 47.545236,124.12701 49.261636,123.21001 C 51.090536,122.23291 50.998836,120.31281 51.301436,117.67341 C 51.581636,112.83361 51.010036,108.88301 50.572936,104.26921 C 50.038736,97.227107 49.966036,93.164907 52.612736,87.368207 C 52.855836,86.835607 54.081536,85.672107 53.778336,83.434307 z " style="opacity:1;fill:#00a600;fill-opacity:1;fill-rule:nonzero;stroke:none;stroke-width:0.12500000000000000;stroke-linecap:butt;stroke-linejoin:miter;stroke-dasharray:none;stroke-opacity:1"/>
  <path d="M 37.460136,23.989107 C 32.846336,26.903107 29.481936,28.974907 27.552636,34.042407 C 25.839436,38.542407 26.327736,42.770007 29.592436,47.009507 C 33.321336,51.851807 36.826636,52.435507 41.539736,51.671907 C 47.316936,50.735807 49.417336,46.925807 49.698836,41.910007 C 49.951536,37.406907 43.870836,31.274007 37.460136,23.989107 z " style="fill: rgb(255, 255, 255); fill-opacity: 1; fill-rule: evenodd; stroke: none; stroke-width: 0.125; stroke-linecap: butt; stroke-linejoin: miter; stroke-dasharray: none; stroke-opacity: 1;"/>
  <path d="M 346.76285 517.93945 A 7.4306335 7.4306335 0 1 1  331.90158,517.93945 A 7.4306335 7.4306335 0 1 1  346.76285 517.93945 z" style="fill: rgb(255, 255, 255); fill-opacity: 1; fill-rule: evenodd; stroke: rgb(255, 255, 255); stroke-width: 0.125; stroke-linecap: butt; stroke-linejoin: miter; stroke-dasharray: none; stroke-opacity: 1;" transform="matrix(1.17647, 0, 0, 1.17647, -331.012, -573.404)"/>
  <path d="M 346.76285 517.93945 A 7.4306335 7.4306335 0 1 1  331.90158,517.93945 A 7.4306335 7.4306335 0 1 1  346.76285 517.93945 z" style="fill: rgb(0, 0, 0); fill-opacity: 1; fill-rule: evenodd; stroke: none; stroke-width: 0.125; stroke-linecap: butt; stroke-linejoin: miter; stroke-dasharray: none; stroke-opacity: 1;" transform="matrix(0.764707, 0, 0, 0.764707, -192.744, -361.156)"/>
  <path d="M 132.60134,150.60131 C 135.56384,150.26131 138.52644,149.92141 141.48894,149.58141 C 136.87514,142.19941 138.21814,135.66471 141.19764,132.38901 C 146.03724,127.06841 153.09634,124.27841 163.19814,125.10401 C 147.80264,119.42171 136.33004,126.92721 132.60134,133.70011 C 129.61154,139.35161 131.19294,148.65861 132.60134,150.60131 z " style="fill: rgb(255, 255, 255); fill-opacity: 1; fill-rule: evenodd; stroke: none; stroke-width: 0.125; stroke-linecap: butt; stroke-linejoin: miter; stroke-dasharray: none; stroke-opacity: 1;"/>
  <path id="maze" v:res3="32x31" v:res2="22x22" v:res1="18x18" v:start="77x86" v:end="200x186" v:border="#007600" v:wall="#00a600" d="M 89.14472,54.193707 c 9.621349,-8.246868 27.88227,-7.068745 39.66351,-3.141665 11.78124,3.927081 21.20623,5.497913 34.55831,18.064569 13.35207,12.566657 17.67186,12.173949 23.16977,24.347897 5.49791,12.173952 17.27915,18.457282 16.10103,35.343722 -1.17813,16.88644 2.35625,30.23852 -3.92708,34.95101 -6.28333,4.7125 -31.02394,3.92708 -36.91456,-3.14166 -5.89062,-7.06874 -11.78124,-18.06457 -6.67603,-20.42082 5.1052,-2.35625 16.88644,-3.14166 21.20623,-7.46145 4.31979,-4.31979 5.1052,-15.31561 -2.74896,-16.88644 -7.85416,-1.57084 -33.38017,-12.56666 -41.23434,-0.39271 -4.90127,7.59696 -5.49791,18.84998 -11.38853,19.24269 -5.89062,0.39271 -20.81353,0.39271 -33.380182,-19.2427 C 75.582029,96.718869 74.614524,92.679093 76.578064,78.148895 78.412715,64.572472 79.523371,62.440575 89.14472,54.193707 z" style="fill:#007600;stroke:none;stroke-width:1px;stroke-linecap:butt;stroke-linejoin:miter;stroke-opacity:1;fill-opacity:1;visibility:hidden;"/>
</svg>